solid OpenSCAD_Model
  facet normal 0.650945 0.650945 -0.390567
    outer loop
      vertex 100 0 100
      vertex 0 40 0
      vertex 0 100 100
    endloop
  endfacet
  facet normal 0.650945 0.650945 -0.390567
    outer loop
      vertex 0 40 0
      vertex 100 0 100
      vertex 40 0 0
    endloop
  endfacet
  facet normal -0.650945 0.650945 -0.390567
    outer loop
      vertex -100 0 100
      vertex 0 40 0
      vertex -40 0 0
    endloop
  endfacet
  facet normal -0.650945 0.650945 -0.390567
    outer loop
      vertex 0 40 0
      vertex -100 0 100
      vertex 0 100 100
    endloop
  endfacet
  facet normal 0 0 1
    outer loop
      vertex 0 100 100
      vertex 70 0 100
      vertex 100 0 100
    endloop
  endfacet
  facet normal 0 0 1
    outer loop
      vertex 0 100 100
      vertex 0 70 100
      vertex 70 0 100
    endloop
  endfacet
  facet normal 0 0 1
    outer loop
      vertex 0 100 100
      vertex -70 0 100
      vertex 0 70 100
    endloop
  endfacet
  facet normal 0 -0 1
    outer loop
      vertex -70 0 100
      vertex 0 100 100
      vertex -100 0 100
    endloop
  endfacet
  facet normal 0 0 1
    outer loop
      vertex 0 -70 100
      vertex 100 0 100
      vertex 70 0 100
    endloop
  endfacet
  facet normal -0 0 1
    outer loop
      vertex 0 -70 100
      vertex 0 -100 100
      vertex 100 0 100
    endloop
  endfacet
  facet normal 0 0 1
    outer loop
      vertex -70 0 100
      vertex 0 -100 100
      vertex 0 -70 100
    endloop
  endfacet
  facet normal 0 0 1
    outer loop
      vertex 0 -100 100
      vertex -70 0 100
      vertex -100 0 100
    endloop
  endfacet
  facet normal 0.650945 -0.650945 -0.390567
    outer loop
      vertex 100 0 100
      vertex 0 -40 0
      vertex 40 0 0
    endloop
  endfacet
  facet normal 0.650945 -0.650945 -0.390567
    outer loop
      vertex 0 -40 0
      vertex 100 0 100
      vertex 0 -100 100
    endloop
  endfacet
  facet normal -0.650945 -0.650945 -0.390567
    outer loop
      vertex 0 -40 0
      vertex -100 0 100
      vertex -40 0 0
    endloop
  endfacet
  facet normal -0.650945 -0.650945 -0.390567
    outer loop
      vertex -100 0 100
      vertex 0 -40 0
      vertex 0 -100 100
    endloop
  endfacet
  facet normal 0 0 -1
    outer loop
      vertex 0 -40 0
      vertex 20 0 0
      vertex 40 0 0
    endloop
  endfacet
  facet normal 0 0 -1
    outer loop
      vertex 0 -40 0
      vertex 0 -20 0
      vertex 20 0 0
    endloop
  endfacet
  facet normal 0 0 -1
    outer loop
      vertex 0 -40 0
      vertex -20 0 0
      vertex 0 -20 0
    endloop
  endfacet
  facet normal -0 -0 -1
    outer loop
      vertex -20 0 0
      vertex 0 -40 0
      vertex -40 0 0
    endloop
  endfacet
  facet normal 0 0 -1
    outer loop
      vertex 0 20 0
      vertex 40 0 0
      vertex 20 0 0
    endloop
  endfacet
  facet normal 0 0 -1
    outer loop
      vertex 0 20 0
      vertex 0 40 0
      vertex 40 0 0
    endloop
  endfacet
  facet normal 0 0 -1
    outer loop
      vertex -20 0 0
      vertex 0 40 0
      vertex 0 20 0
    endloop
  endfacet
  facet normal 0 0 -1
    outer loop
      vertex 0 40 0
      vertex -20 0 0
      vertex -40 0 0
    endloop
  endfacet
  facet normal -0.666667 -0.666667 0.333333
    outer loop
      vertex 70 0 100
      vertex 0 20 0
      vertex 20 0 0
    endloop
  endfacet
  facet normal -0.666667 -0.666667 0.333333
    outer loop
      vertex 0 20 0
      vertex 70 0 100
      vertex 0 70 100
    endloop
  endfacet
  facet normal 0.666667 -0.666667 0.333333
    outer loop
      vertex -70 0 100
      vertex 0 20 0
      vertex 0 70 100
    endloop
  endfacet
  facet normal 0.666667 -0.666667 0.333333
    outer loop
      vertex 0 20 0
      vertex -70 0 100
      vertex -20 0 0
    endloop
  endfacet
  facet normal -0.666667 0.666667 0.333333
    outer loop
      vertex 0 -20 0
      vertex 70 0 100
      vertex 20 0 0
    endloop
  endfacet
  facet normal -0.666667 0.666667 0.333333
    outer loop
      vertex 70 0 100
      vertex 0 -20 0
      vertex 0 -70 100
    endloop
  endfacet
  facet normal 0.666667 0.666667 0.333333
    outer loop
      vertex -70 0 100
      vertex 0 -20 0
      vertex -20 0 0
    endloop
  endfacet
  facet normal 0.666667 0.666667 0.333333
    outer loop
      vertex 0 -20 0
      vertex -70 0 100
      vertex 0 -70 100
    endloop
  endfacet
endsolid OpenSCAD_Model
