solid OpenSCAD_Model
  facet normal 0.92388 0.382683 0
    outer loop
      vertex 200 100 100
      vertex 170.711 170.711 0
      vertex 170.711 170.711 100
    endloop
  endfacet
  facet normal 0.92388 0.382683 0
    outer loop
      vertex 170.711 170.711 0
      vertex 200 100 100
      vertex 200 100 0
    endloop
  endfacet
  facet normal -0.92388 0.382683 0
    outer loop
      vertex 0 100 0
      vertex 29.2893 170.711 100
      vertex 29.2893 170.711 0
    endloop
  endfacet
  facet normal -0.92388 0.382683 0
    outer loop
      vertex 29.2893 170.711 100
      vertex 0 100 0
      vertex 0 100 100
    endloop
  endfacet
  facet normal 0.382683 0.92388 -0
    outer loop
      vertex 170.711 170.711 0
      vertex 100 200 100
      vertex 170.711 170.711 100
    endloop
  endfacet
  facet normal 0.382683 0.92388 0
    outer loop
      vertex 100 200 100
      vertex 170.711 170.711 0
      vertex 100 200 0
    endloop
  endfacet
  facet normal 0 0 -1
    outer loop
      vertex 160 100 0
      vertex 200 100 0
      vertex 170.711 29.2893 0
    endloop
  endfacet
  facet normal 0 0 -1
    outer loop
      vertex 200 100 0
      vertex 160 100 0
      vertex 170.711 170.711 0
    endloop
  endfacet
  facet normal 0 0 -1
    outer loop
      vertex 170.711 29.2893 0
      vertex 118.541 42.9366 0
      vertex 160 100 0
    endloop
  endfacet
  facet normal 0 0 -1
    outer loop
      vertex 100 0 0
      vertex 118.541 42.9366 0
      vertex 170.711 29.2893 0
    endloop
  endfacet
  facet normal 0 0 -1
    outer loop
      vertex 100 0 0
      vertex 51.459 64.7329 0
      vertex 118.541 42.9366 0
    endloop
  endfacet
  facet normal 0 0 -1
    outer loop
      vertex 0 100 0
      vertex 51.459 64.7329 0
      vertex 29.2893 29.2893 0
    endloop
  endfacet
  facet normal 0 0 -1
    outer loop
      vertex 29.2893 29.2893 0
      vertex 51.459 64.7329 0
      vertex 100 0 0
    endloop
  endfacet
  facet normal 0 0 -1
    outer loop
      vertex 118.541 157.063 0
      vertex 170.711 170.711 0
      vertex 160 100 0
    endloop
  endfacet
  facet normal 0 0 -1
    outer loop
      vertex 118.541 157.063 0
      vertex 100 200 0
      vertex 170.711 170.711 0
    endloop
  endfacet
  facet normal 0 0 -1
    outer loop
      vertex 51.459 135.267 0
      vertex 100 200 0
      vertex 118.541 157.063 0
    endloop
  endfacet
  facet normal 0 0 -1
    outer loop
      vertex 51.459 135.267 0
      vertex 29.2893 170.711 0
      vertex 100 200 0
    endloop
  endfacet
  facet normal 0 0 -1
    outer loop
      vertex 51.459 64.7329 0
      vertex 0 100 0
      vertex 51.459 135.267 0
    endloop
  endfacet
  facet normal -0 0 -1
    outer loop
      vertex 51.459 135.267 0
      vertex 0 100 0
      vertex 29.2893 170.711 0
    endloop
  endfacet
  facet normal 0 0 1
    outer loop
      vertex 160 100 100
      vertex 200 100 100
      vertex 170.711 170.711 100
    endloop
  endfacet
  facet normal 0 0 1
    outer loop
      vertex 200 100 100
      vertex 160 100 100
      vertex 170.711 29.2893 100
    endloop
  endfacet
  facet normal 0 0 1
    outer loop
      vertex 170.711 170.711 100
      vertex 118.541 157.063 100
      vertex 160 100 100
    endloop
  endfacet
  facet normal 0 0 1
    outer loop
      vertex 100 200 100
      vertex 118.541 157.063 100
      vertex 170.711 170.711 100
    endloop
  endfacet
  facet normal 0 0 1
    outer loop
      vertex 100 200 100
      vertex 51.459 135.267 100
      vertex 118.541 157.063 100
    endloop
  endfacet
  facet normal 0 0 1
    outer loop
      vertex 0 100 100
      vertex 51.459 135.267 100
      vertex 29.2893 170.711 100
    endloop
  endfacet
  facet normal -0 0 1
    outer loop
      vertex 29.2893 170.711 100
      vertex 51.459 135.267 100
      vertex 100 200 100
    endloop
  endfacet
  facet normal -0 0 1
    outer loop
      vertex 118.541 42.9366 100
      vertex 170.711 29.2893 100
      vertex 160 100 100
    endloop
  endfacet
  facet normal 0 0 1
    outer loop
      vertex 118.541 42.9366 100
      vertex 100 0 100
      vertex 170.711 29.2893 100
    endloop
  endfacet
  facet normal 0 0 1
    outer loop
      vertex 51.459 64.7329 100
      vertex 100 0 100
      vertex 118.541 42.9366 100
    endloop
  endfacet
  facet normal 0 0 1
    outer loop
      vertex 51.459 64.7329 100
      vertex 29.2893 29.2893 100
      vertex 100 0 100
    endloop
  endfacet
  facet normal 0 0 1
    outer loop
      vertex 51.459 135.267 100
      vertex 0 100 100
      vertex 51.459 64.7329 100
    endloop
  endfacet
  facet normal 0 0 1
    outer loop
      vertex 51.459 64.7329 100
      vertex 0 100 100
      vertex 29.2893 29.2893 100
    endloop
  endfacet
  facet normal -0.382683 0.92388 0
    outer loop
      vertex 100 200 0
      vertex 29.2893 170.711 100
      vertex 100 200 100
    endloop
  endfacet
  facet normal -0.382683 0.92388 0
    outer loop
      vertex 29.2893 170.711 100
      vertex 100 200 0
      vertex 29.2893 170.711 0
    endloop
  endfacet
  facet normal 0.382683 -0.92388 0
    outer loop
      vertex 100 0 0
      vertex 170.711 29.2893 100
      vertex 100 0 100
    endloop
  endfacet
  facet normal 0.382683 -0.92388 0
    outer loop
      vertex 170.711 29.2893 100
      vertex 100 0 0
      vertex 170.711 29.2893 0
    endloop
  endfacet
  facet normal -0.92388 -0.382683 0
    outer loop
      vertex 29.2893 29.2893 0
      vertex 0 100 100
      vertex 0 100 0
    endloop
  endfacet
  facet normal -0.92388 -0.382683 0
    outer loop
      vertex 0 100 100
      vertex 29.2893 29.2893 0
      vertex 29.2893 29.2893 100
    endloop
  endfacet
  facet normal 0.92388 -0.382683 0
    outer loop
      vertex 170.711 29.2893 100
      vertex 200 100 0
      vertex 200 100 100
    endloop
  endfacet
  facet normal 0.92388 -0.382683 0
    outer loop
      vertex 200 100 0
      vertex 170.711 29.2893 100
      vertex 170.711 29.2893 0
    endloop
  endfacet
  facet normal -0.382683 -0.92388 0
    outer loop
      vertex 29.2893 29.2893 0
      vertex 100 0 100
      vertex 29.2893 29.2893 100
    endloop
  endfacet
  facet normal -0.382683 -0.92388 -0
    outer loop
      vertex 100 0 100
      vertex 29.2893 29.2893 0
      vertex 100 0 0
    endloop
  endfacet
  facet normal -0.809017 -0.587785 0
    outer loop
      vertex 160 100 0
      vertex 118.541 157.063 100
      vertex 118.541 157.063 0
    endloop
  endfacet
  facet normal -0.809017 -0.587785 0
    outer loop
      vertex 118.541 157.063 100
      vertex 160 100 0
      vertex 160 100 100
    endloop
  endfacet
  facet normal 1 -0 0
    outer loop
      vertex 51.459 64.7329 100
      vertex 51.459 135.267 0
      vertex 51.459 135.267 100
    endloop
  endfacet
  facet normal 1 0 0
    outer loop
      vertex 51.459 135.267 0
      vertex 51.459 64.7329 100
      vertex 51.459 64.7329 0
    endloop
  endfacet
  facet normal 0.309017 -0.951057 0
    outer loop
      vertex 51.459 135.267 0
      vertex 118.541 157.063 100
      vertex 51.459 135.267 100
    endloop
  endfacet
  facet normal 0.309017 -0.951057 0
    outer loop
      vertex 118.541 157.063 100
      vertex 51.459 135.267 0
      vertex 118.541 157.063 0
    endloop
  endfacet
  facet normal -0.809017 0.587785 0
    outer loop
      vertex 118.541 42.9366 0
      vertex 160 100 100
      vertex 160 100 0
    endloop
  endfacet
  facet normal -0.809017 0.587785 0
    outer loop
      vertex 160 100 100
      vertex 118.541 42.9366 0
      vertex 118.541 42.9366 100
    endloop
  endfacet
  facet normal 0.309017 0.951056 -0
    outer loop
      vertex 118.541 42.9366 0
      vertex 51.459 64.7329 100
      vertex 118.541 42.9366 100
    endloop
  endfacet
  facet normal 0.309017 0.951056 0
    outer loop
      vertex 51.459 64.7329 100
      vertex 118.541 42.9366 0
      vertex 51.459 64.7329 0
    endloop
  endfacet
  facet normal 0.92388 0.382683 0
    outer loop
      vertex 0 -100 100
      vertex -29.2893 -29.2893 0
      vertex -29.2893 -29.2893 100
    endloop
  endfacet
  facet normal 0.92388 0.382683 0
    outer loop
      vertex -29.2893 -29.2893 0
      vertex 0 -100 100
      vertex 0 -100 0
    endloop
  endfacet
  facet normal -0.92388 0.382683 0
    outer loop
      vertex -200 -100 0
      vertex -170.711 -29.2893 100
      vertex -170.711 -29.2893 0
    endloop
  endfacet
  facet normal -0.92388 0.382683 0
    outer loop
      vertex -170.711 -29.2893 100
      vertex -200 -100 0
      vertex -200 -100 100
    endloop
  endfacet
  facet normal 0.382683 0.92388 -0
    outer loop
      vertex -29.2893 -29.2893 0
      vertex -100 0 100
      vertex -29.2893 -29.2893 100
    endloop
  endfacet
  facet normal 0.382683 0.92388 0
    outer loop
      vertex -100 0 100
      vertex -29.2893 -29.2893 0
      vertex -100 0 0
    endloop
  endfacet
  facet normal 0 0 -1
    outer loop
      vertex -40 -100 0
      vertex 0 -100 0
      vertex -29.2893 -170.711 0
    endloop
  endfacet
  facet normal 0 0 -1
    outer loop
      vertex 0 -100 0
      vertex -40 -100 0
      vertex -29.2893 -29.2893 0
    endloop
  endfacet
  facet normal 0 0 -1
    outer loop
      vertex -29.2893 -170.711 0
      vertex -81.459 -157.063 0
      vertex -40 -100 0
    endloop
  endfacet
  facet normal 0 0 -1
    outer loop
      vertex -100 -200 0
      vertex -81.459 -157.063 0
      vertex -29.2893 -170.711 0
    endloop
  endfacet
  facet normal 0 0 -1
    outer loop
      vertex -100 -200 0
      vertex -148.541 -135.267 0
      vertex -81.459 -157.063 0
    endloop
  endfacet
  facet normal 0 0 -1
    outer loop
      vertex -200 -100 0
      vertex -148.541 -135.267 0
      vertex -170.711 -170.711 0
    endloop
  endfacet
  facet normal 0 0 -1
    outer loop
      vertex -170.711 -170.711 0
      vertex -148.541 -135.267 0
      vertex -100 -200 0
    endloop
  endfacet
  facet normal 0 0 -1
    outer loop
      vertex -81.459 -42.9366 0
      vertex -29.2893 -29.2893 0
      vertex -40 -100 0
    endloop
  endfacet
  facet normal 0 0 -1
    outer loop
      vertex -81.459 -42.9366 0
      vertex -100 0 0
      vertex -29.2893 -29.2893 0
    endloop
  endfacet
  facet normal 0 0 -1
    outer loop
      vertex -148.541 -64.7329 0
      vertex -100 0 0
      vertex -81.459 -42.9366 0
    endloop
  endfacet
  facet normal 0 0 -1
    outer loop
      vertex -148.541 -64.7329 0
      vertex -170.711 -29.2893 0
      vertex -100 0 0
    endloop
  endfacet
  facet normal 0 0 -1
    outer loop
      vertex -148.541 -135.267 0
      vertex -200 -100 0
      vertex -148.541 -64.7329 0
    endloop
  endfacet
  facet normal -0 0 -1
    outer loop
      vertex -148.541 -64.7329 0
      vertex -200 -100 0
      vertex -170.711 -29.2893 0
    endloop
  endfacet
  facet normal 0 0 1
    outer loop
      vertex -40 -100 100
      vertex 0 -100 100
      vertex -29.2893 -29.2893 100
    endloop
  endfacet
  facet normal 0 0 1
    outer loop
      vertex 0 -100 100
      vertex -40 -100 100
      vertex -29.2893 -170.711 100
    endloop
  endfacet
  facet normal 0 0 1
    outer loop
      vertex -29.2893 -29.2893 100
      vertex -81.459 -42.9366 100
      vertex -40 -100 100
    endloop
  endfacet
  facet normal 0 0 1
    outer loop
      vertex -100 0 100
      vertex -81.459 -42.9366 100
      vertex -29.2893 -29.2893 100
    endloop
  endfacet
  facet normal 0 0 1
    outer loop
      vertex -100 0 100
      vertex -148.541 -64.7329 100
      vertex -81.459 -42.9366 100
    endloop
  endfacet
  facet normal 0 0 1
    outer loop
      vertex -200 -100 100
      vertex -148.541 -64.7329 100
      vertex -170.711 -29.2893 100
    endloop
  endfacet
  facet normal -0 0 1
    outer loop
      vertex -170.711 -29.2893 100
      vertex -148.541 -64.7329 100
      vertex -100 0 100
    endloop
  endfacet
  facet normal -0 0 1
    outer loop
      vertex -81.459 -157.063 100
      vertex -29.2893 -170.711 100
      vertex -40 -100 100
    endloop
  endfacet
  facet normal 0 0 1
    outer loop
      vertex -81.459 -157.063 100
      vertex -100 -200 100
      vertex -29.2893 -170.711 100
    endloop
  endfacet
  facet normal 0 0 1
    outer loop
      vertex -148.541 -135.267 100
      vertex -100 -200 100
      vertex -81.459 -157.063 100
    endloop
  endfacet
  facet normal 0 0 1
    outer loop
      vertex -148.541 -135.267 100
      vertex -170.711 -170.711 100
      vertex -100 -200 100
    endloop
  endfacet
  facet normal 0 0 1
    outer loop
      vertex -148.541 -64.7329 100
      vertex -200 -100 100
      vertex -148.541 -135.267 100
    endloop
  endfacet
  facet normal 0 0 1
    outer loop
      vertex -148.541 -135.267 100
      vertex -200 -100 100
      vertex -170.711 -170.711 100
    endloop
  endfacet
  facet normal -0.382683 0.92388 0
    outer loop
      vertex -100 0 0
      vertex -170.711 -29.2893 100
      vertex -100 0 100
    endloop
  endfacet
  facet normal -0.382683 0.92388 0
    outer loop
      vertex -170.711 -29.2893 100
      vertex -100 0 0
      vertex -170.711 -29.2893 0
    endloop
  endfacet
  facet normal 0.382683 -0.92388 0
    outer loop
      vertex -100 -200 0
      vertex -29.2893 -170.711 100
      vertex -100 -200 100
    endloop
  endfacet
  facet normal 0.382683 -0.92388 0
    outer loop
      vertex -29.2893 -170.711 100
      vertex -100 -200 0
      vertex -29.2893 -170.711 0
    endloop
  endfacet
  facet normal -0.92388 -0.382683 0
    outer loop
      vertex -170.711 -170.711 0
      vertex -200 -100 100
      vertex -200 -100 0
    endloop
  endfacet
  facet normal -0.92388 -0.382683 0
    outer loop
      vertex -200 -100 100
      vertex -170.711 -170.711 0
      vertex -170.711 -170.711 100
    endloop
  endfacet
  facet normal 0.92388 -0.382683 0
    outer loop
      vertex -29.2893 -170.711 100
      vertex 0 -100 0
      vertex 0 -100 100
    endloop
  endfacet
  facet normal 0.92388 -0.382683 0
    outer loop
      vertex 0 -100 0
      vertex -29.2893 -170.711 100
      vertex -29.2893 -170.711 0
    endloop
  endfacet
  facet normal -0.382683 -0.92388 0
    outer loop
      vertex -170.711 -170.711 0
      vertex -100 -200 100
      vertex -170.711 -170.711 100
    endloop
  endfacet
  facet normal -0.382683 -0.92388 -0
    outer loop
      vertex -100 -200 100
      vertex -170.711 -170.711 0
      vertex -100 -200 0
    endloop
  endfacet
  facet normal -0.809017 -0.587785 0
    outer loop
      vertex -40 -100 0
      vertex -81.459 -42.9366 100
      vertex -81.459 -42.9366 0
    endloop
  endfacet
  facet normal -0.809017 -0.587785 0
    outer loop
      vertex -81.459 -42.9366 100
      vertex -40 -100 0
      vertex -40 -100 100
    endloop
  endfacet
  facet normal 1 -0 0
    outer loop
      vertex -148.541 -135.267 100
      vertex -148.541 -64.7329 0
      vertex -148.541 -64.7329 100
    endloop
  endfacet
  facet normal 1 0 0
    outer loop
      vertex -148.541 -64.7329 0
      vertex -148.541 -135.267 100
      vertex -148.541 -135.267 0
    endloop
  endfacet
  facet normal 0.309017 -0.951056 0
    outer loop
      vertex -148.541 -64.7329 0
      vertex -81.459 -42.9366 100
      vertex -148.541 -64.7329 100
    endloop
  endfacet
  facet normal 0.309017 -0.951056 0
    outer loop
      vertex -81.459 -42.9366 100
      vertex -148.541 -64.7329 0
      vertex -81.459 -42.9366 0
    endloop
  endfacet
  facet normal -0.809017 0.587785 0
    outer loop
      vertex -81.459 -157.063 0
      vertex -40 -100 100
      vertex -40 -100 0
    endloop
  endfacet
  facet normal -0.809017 0.587785 0
    outer loop
      vertex -40 -100 100
      vertex -81.459 -157.063 0
      vertex -81.459 -157.063 100
    endloop
  endfacet
  facet normal 0.309017 0.951057 -0
    outer loop
      vertex -81.459 -157.063 0
      vertex -148.541 -135.267 100
      vertex -81.459 -157.063 100
    endloop
  endfacet
  facet normal 0.309017 0.951057 0
    outer loop
      vertex -148.541 -135.267 100
      vertex -81.459 -157.063 0
      vertex -148.541 -135.267 0
    endloop
  endfacet
endsolid OpenSCAD_Model
