solid OpenSCAD_Model
  facet normal 0.464238 -0.804084 -0.371391
    outer loop
      vertex 200 0 0
      vertex -500 -866.025 1000
      vertex -100 -173.205 0
    endloop
  endfacet
  facet normal 0 0 1
    outer loop
      vertex -500 -292.1 1000
      vertex -500 -866.025 1000
      vertex -136.146 -655.954 1000
    endloop
  endfacet
  facet normal 0 0 1
    outer loop
      vertex 1000 0 1000
      vertex 508.103 283.997 1000
      vertex 792.1 0 1000
    endloop
  endfacet
  facet normal 0 0 1
    outer loop
      vertex 1000 0 1000
      vertex 792.1 0 1000
      vertex 508.103 -283.997 1000
    endloop
  endfacet
  facet normal 0 0 1
    outer loop
      vertex -500 866.025 1000
      vertex -500 292.1 1000
      vertex -136.146 655.954 1000
    endloop
  endfacet
  facet normal 0.464238 -0.804084 -0.371391
    outer loop
      vertex -500 -866.025 1000
      vertex 0 -275.056 345.514
      vertex -136.146 -655.954 1000
    endloop
  endfacet
  facet normal 0.464238 -0.804084 -0.371391
    outer loop
      vertex 0 -275.056 345.514
      vertex -500 -866.025 1000
      vertex 200 0 0
    endloop
  endfacet
  facet normal 0.464238 -0.804084 -0.371391
    outer loop
      vertex 200 0 0
      vertex 508.103 -283.997 1000
      vertex 0 -275.056 345.514
    endloop
  endfacet
  facet normal 0.464238 -0.804084 -0.371391
    outer loop
      vertex 508.103 -283.997 1000
      vertex 200 0 0
      vertex 1000 0 1000
    endloop
  endfacet
  facet normal -0 0 -1
    outer loop
      vertex 200 0 0
      vertex -100 -173.205 0
      vertex -100 173.205 0
    endloop
  endfacet
  facet normal 0.464238 0.804084 -0.371391
    outer loop
      vertex 200 0 0
      vertex 508.103 283.997 1000
      vertex 1000 0 1000
    endloop
  endfacet
  facet normal 0.464238 0.804084 -0.371391
    outer loop
      vertex 508.103 283.997 1000
      vertex 200 0 0
      vertex 0 275.056 345.514
    endloop
  endfacet
  facet normal 0.464238 0.804084 -0.371391
    outer loop
      vertex 0 275.056 345.514
      vertex -500 866.025 1000
      vertex -136.146 655.954 1000
    endloop
  endfacet
  facet normal 0.464238 0.804084 -0.371391
    outer loop
      vertex -500 866.025 1000
      vertex 0 275.056 345.514
      vertex 200 0 0
    endloop
  endfacet
  facet normal 0.464238 0.804084 -0.371391
    outer loop
      vertex -100 173.205 0
      vertex -500 866.025 1000
      vertex 200 0 0
    endloop
  endfacet
  facet normal -0.928477 -0 -0.371391
    outer loop
      vertex -500 866.025 1000
      vertex -200.41 0 251.026
      vertex -500 292.1 1000
    endloop
  endfacet
  facet normal -0.928477 9.69615e-08 -0.371391
    outer loop
      vertex -100 -173.205 0
      vertex -200.41 0 251.026
      vertex -500 866.025 1000
    endloop
  endfacet
  facet normal -0.928477 -4.18637e-08 -0.371391
    outer loop
      vertex -100 -173.205 0
      vertex -500 -292.1 1000
      vertex -200.41 0 251.026
    endloop
  endfacet
  facet normal -0.928477 -0 -0.371391
    outer loop
      vertex -500 -292.1 1000
      vertex -100 -173.205 0
      vertex -500 -866.025 1000
    endloop
  endfacet
  facet normal -0.928477 0 -0.371391
    outer loop
      vertex -100 -173.205 0
      vertex -500 866.025 1000
      vertex -100 173.205 0
    endloop
  endfacet
  facet normal -0.617319 -0.617319 0.487682
    outer loop
      vertex 10 0 10
      vertex 0 275.056 345.514
      vertex 0 10 10
    endloop
  endfacet
  facet normal -0.617319 -0.617319 0.487682
    outer loop
      vertex 0 275.056 345.514
      vertex 10 0 10
      vertex 792.1 0 1000
    endloop
  endfacet
  facet normal -0.617319 -0.617319 0.487682
    outer loop
      vertex 0 275.056 345.514
      vertex 792.1 0 1000
      vertex 508.103 283.997 1000
    endloop
  endfacet
  facet normal 0 0 1
    outer loop
      vertex 0 10 10
      vertex 0 -10 10
      vertex 10 0 10
    endloop
  endfacet
  facet normal 0 -0 1
    outer loop
      vertex 0 -10 10
      vertex 0 10 10
      vertex -10 0 10
    endloop
  endfacet
  facet normal -0.617319 0.617319 0.487682
    outer loop
      vertex 0 -275.056 345.514
      vertex 10 0 10
      vertex 0 -10 10
    endloop
  endfacet
  facet normal -0.617319 0.617319 0.487682
    outer loop
      vertex 10 0 10
      vertex 0 -275.056 345.514
      vertex 792.1 0 1000
    endloop
  endfacet
  facet normal -0.617319 0.617319 0.487682
    outer loop
      vertex 792.1 0 1000
      vertex 0 -275.056 345.514
      vertex 508.103 -283.997 1000
    endloop
  endfacet
  facet normal 0.617319 0.617319 0.487682
    outer loop
      vertex -200.41 0 251.026
      vertex -136.146 -655.954 1000
      vertex 0 -275.056 345.514
    endloop
  endfacet
  facet normal 0.617319 0.617319 0.487682
    outer loop
      vertex -136.146 -655.954 1000
      vertex -200.41 0 251.026
      vertex -500 -292.1 1000
    endloop
  endfacet
  facet normal 0.617319 0.617319 0.487682
    outer loop
      vertex -10 0 10
      vertex 0 -275.056 345.514
      vertex 0 -10 10
    endloop
  endfacet
  facet normal 0.617319 0.617319 0.487682
    outer loop
      vertex 0 -275.056 345.514
      vertex -10 0 10
      vertex -200.41 0 251.026
    endloop
  endfacet
  facet normal 0.617319 -0.617319 0.487682
    outer loop
      vertex -200.41 0 251.026
      vertex -136.146 655.954 1000
      vertex -500 292.1 1000
    endloop
  endfacet
  facet normal 0.617319 -0.617319 0.487682
    outer loop
      vertex -136.146 655.954 1000
      vertex -200.41 0 251.026
      vertex 0 275.056 345.514
    endloop
  endfacet
  facet normal 0.617319 -0.617319 0.487682
    outer loop
      vertex -10 0 10
      vertex 0 275.056 345.514
      vertex -200.41 0 251.026
    endloop
  endfacet
  facet normal 0.617319 -0.617319 0.487682
    outer loop
      vertex 0 275.056 345.514
      vertex -10 0 10
      vertex 0 10 10
    endloop
  endfacet
endsolid OpenSCAD_Model
