solid OpenSCAD_Model
  facet normal 0.783197 0.569026 0.250623
    outer loop
      vertex 30.9017 95.1057 0
      vertex 20 0 250
      vertex 100 0 0
    endloop
  endfacet
  facet normal 0.783197 0.569026 0.250623
    outer loop
      vertex 30.9017 95.1057 0
      vertex 6.18034 19.0211 250
      vertex 20 0 250
    endloop
  endfacet
  facet normal -0.299155 0.920703 0.250623
    outer loop
      vertex -80.9017 58.7785 0
      vertex 6.18034 19.0211 250
      vertex 30.9017 95.1057 0
    endloop
  endfacet
  facet normal -0.299155 0.920703 0.250623
    outer loop
      vertex -80.9017 58.7785 0
      vertex -16.1803 11.7557 250
      vertex 6.18034 19.0211 250
    endloop
  endfacet
  facet normal -0.968085 1.17027e-16 0.250623
    outer loop
      vertex -80.9017 -58.7785 0
      vertex -16.1803 11.7557 250
      vertex -80.9017 58.7785 0
    endloop
  endfacet
  facet normal -0.968085 0 0.250623
    outer loop
      vertex -80.9017 -58.7785 0
      vertex -16.1803 -11.7557 250
      vertex -16.1803 11.7557 250
    endloop
  endfacet
  facet normal -0.299155 -0.920703 0.250623
    outer loop
      vertex 30.9017 -95.1057 0
      vertex -16.1803 -11.7557 250
      vertex -80.9017 -58.7785 0
    endloop
  endfacet
  facet normal -0.299155 -0.920703 0.250623
    outer loop
      vertex 30.9017 -95.1057 0
      vertex 6.18034 -19.0211 250
      vertex -16.1803 -11.7557 250
    endloop
  endfacet
  facet normal 0.783197 -0.569026 0.250623
    outer loop
      vertex 100 0 0
      vertex 6.18034 -19.0211 250
      vertex 30.9017 -95.1057 0
    endloop
  endfacet
  facet normal 0.783197 -0.569026 0.250623
    outer loop
      vertex 100 0 0
      vertex 20 0 250
      vertex 6.18034 -19.0211 250
    endloop
  endfacet
  facet normal 0 0 -1
    outer loop
      vertex 30.9017 -95.1057 0
      vertex 30.9017 95.1057 0
      vertex 100 0 0
    endloop
  endfacet
  facet normal 0 0 -1
    outer loop
      vertex -80.9017 -58.7785 0
      vertex 30.9017 95.1057 0
      vertex 30.9017 -95.1057 0
    endloop
  endfacet
  facet normal 0 0 -1
    outer loop
      vertex 30.9017 95.1057 0
      vertex -80.9017 -58.7785 0
      vertex -80.9017 58.7785 0
    endloop
  endfacet
  facet normal 0 0 1
    outer loop
      vertex 6.18034 19.0211 250
      vertex 6.18034 -19.0211 250
      vertex 20 0 250
    endloop
  endfacet
  facet normal -0 0 1
    outer loop
      vertex -16.1803 11.7557 250
      vertex 6.18034 -19.0211 250
      vertex 6.18034 19.0211 250
    endloop
  endfacet
  facet normal 0 0 1
    outer loop
      vertex 6.18034 -19.0211 250
      vertex -16.1803 11.7557 250
      vertex -16.1803 -11.7557 250
    endloop
  endfacet
endsolid OpenSCAD_Model
