solid OpenSCAD_Model
  facet normal 0.615457 0.615457 -0.492366
    outer loop
      vertex 100 0 100
      vertex 0 20 0
      vertex 0 100 100
    endloop
  endfacet
  facet normal 0.615457 0.615457 -0.492366
    outer loop
      vertex 0 20 0
      vertex 100 0 100
      vertex 20 0 0
    endloop
  endfacet
  facet normal -0.615457 0.615457 -0.492366
    outer loop
      vertex -100 0 100
      vertex 0 20 0
      vertex -20 0 0
    endloop
  endfacet
  facet normal -0.615457 0.615457 -0.492366
    outer loop
      vertex 0 20 0
      vertex -100 0 100
      vertex 0 100 100
    endloop
  endfacet
  facet normal 0 0 -1
    outer loop
      vertex 0 -20 0
      vertex 10 0 0
      vertex 20 0 0
    endloop
  endfacet
  facet normal 0 0 -1
    outer loop
      vertex 0 -20 0
      vertex 0 -10 0
      vertex 10 0 0
    endloop
  endfacet
  facet normal 0 0 -1
    outer loop
      vertex 0 -20 0
      vertex -10 0 0
      vertex 0 -10 0
    endloop
  endfacet
  facet normal -0 -0 -1
    outer loop
      vertex -10 0 0
      vertex 0 -20 0
      vertex -20 0 0
    endloop
  endfacet
  facet normal 0 0 -1
    outer loop
      vertex 0 10 0
      vertex 20 0 0
      vertex 10 0 0
    endloop
  endfacet
  facet normal 0 0 -1
    outer loop
      vertex 0 10 0
      vertex 0 20 0
      vertex 20 0 0
    endloop
  endfacet
  facet normal 0 0 -1
    outer loop
      vertex -10 0 0
      vertex 0 20 0
      vertex 0 10 0
    endloop
  endfacet
  facet normal 0 0 -1
    outer loop
      vertex 0 20 0
      vertex -10 0 0
      vertex -20 0 0
    endloop
  endfacet
  facet normal 0 0 1
    outer loop
      vertex 0 100 100
      vertex 80 0 100
      vertex 100 0 100
    endloop
  endfacet
  facet normal 0 0 1
    outer loop
      vertex 0 100 100
      vertex 0 80 100
      vertex 80 0 100
    endloop
  endfacet
  facet normal 0 0 1
    outer loop
      vertex 0 100 100
      vertex -80 0 100
      vertex 0 80 100
    endloop
  endfacet
  facet normal 0 -0 1
    outer loop
      vertex -80 0 100
      vertex 0 100 100
      vertex -100 0 100
    endloop
  endfacet
  facet normal 0 0 1
    outer loop
      vertex 0 -80 100
      vertex 100 0 100
      vertex 80 0 100
    endloop
  endfacet
  facet normal -0 0 1
    outer loop
      vertex 0 -80 100
      vertex 0 -100 100
      vertex 100 0 100
    endloop
  endfacet
  facet normal 0 0 1
    outer loop
      vertex -80 0 100
      vertex 0 -100 100
      vertex 0 -80 100
    endloop
  endfacet
  facet normal 0 0 1
    outer loop
      vertex 0 -100 100
      vertex -80 0 100
      vertex -100 0 100
    endloop
  endfacet
  facet normal 0.615457 -0.615457 -0.492366
    outer loop
      vertex 100 0 100
      vertex 0 -20 0
      vertex 20 0 0
    endloop
  endfacet
  facet normal 0.615457 -0.615457 -0.492366
    outer loop
      vertex 0 -20 0
      vertex 100 0 100
      vertex 0 -100 100
    endloop
  endfacet
  facet normal -0.615457 -0.615457 -0.492366
    outer loop
      vertex 0 -20 0
      vertex -100 0 100
      vertex -20 0 0
    endloop
  endfacet
  facet normal -0.615457 -0.615457 -0.492366
    outer loop
      vertex -100 0 100
      vertex 0 -20 0
      vertex 0 -100 100
    endloop
  endfacet
  facet normal -0.633724 -0.633724 0.443607
    outer loop
      vertex 80 0 100
      vertex 0 10 0
      vertex 10 0 0
    endloop
  endfacet
  facet normal -0.633724 -0.633724 0.443607
    outer loop
      vertex 0 10 0
      vertex 80 0 100
      vertex 0 80 100
    endloop
  endfacet
  facet normal 0.633724 -0.633724 0.443607
    outer loop
      vertex -80 0 100
      vertex 0 10 0
      vertex 0 80 100
    endloop
  endfacet
  facet normal 0.633724 -0.633724 0.443607
    outer loop
      vertex 0 10 0
      vertex -80 0 100
      vertex -10 0 0
    endloop
  endfacet
  facet normal -0.633724 0.633724 0.443607
    outer loop
      vertex 0 -10 0
      vertex 80 0 100
      vertex 10 0 0
    endloop
  endfacet
  facet normal -0.633724 0.633724 0.443607
    outer loop
      vertex 80 0 100
      vertex 0 -10 0
      vertex 0 -80 100
    endloop
  endfacet
  facet normal 0.633724 0.633724 0.443607
    outer loop
      vertex -80 0 100
      vertex 0 -10 0
      vertex -10 0 0
    endloop
  endfacet
  facet normal 0.633724 0.633724 0.443607
    outer loop
      vertex 0 -10 0
      vertex -80 0 100
      vertex 0 -80 100
    endloop
  endfacet
endsolid OpenSCAD_Model
