solid OpenSCAD_Model
  facet normal 0.615457 0.615457 -0.492366
    outer loop
      vertex 1000 0 1000
      vertex 0 200 0
      vertex 0 1000 1000
    endloop
  endfacet
  facet normal 0.615457 0.615457 -0.492366
    outer loop
      vertex 0 200 0
      vertex 1000 0 1000
      vertex 200 0 0
    endloop
  endfacet
  facet normal -0.615457 0.615457 -0.492366
    outer loop
      vertex -1000 0 1000
      vertex 0 200 0
      vertex -200 0 0
    endloop
  endfacet
  facet normal -0.615457 0.615457 -0.492366
    outer loop
      vertex 0 200 0
      vertex -1000 0 1000
      vertex 0 1000 1000
    endloop
  endfacet
  facet normal 0 0 1
    outer loop
      vertex 0 1000 1000
      vertex 793 0 1000
      vertex 1000 0 1000
    endloop
  endfacet
  facet normal 0 0 1
    outer loop
      vertex 0 1000 1000
      vertex 0 793 1000
      vertex 793 0 1000
    endloop
  endfacet
  facet normal 0 0 1
    outer loop
      vertex 0 1000 1000
      vertex -793 0 1000
      vertex 0 793 1000
    endloop
  endfacet
  facet normal 0 -0 1
    outer loop
      vertex -793 0 1000
      vertex 0 1000 1000
      vertex -1000 0 1000
    endloop
  endfacet
  facet normal 0 0 1
    outer loop
      vertex 0 -793 1000
      vertex 1000 0 1000
      vertex 793 0 1000
    endloop
  endfacet
  facet normal -0 0 1
    outer loop
      vertex 0 -793 1000
      vertex 0 -1000 1000
      vertex 1000 0 1000
    endloop
  endfacet
  facet normal 0 0 1
    outer loop
      vertex -793 0 1000
      vertex 0 -1000 1000
      vertex 0 -793 1000
    endloop
  endfacet
  facet normal 0 0 1
    outer loop
      vertex 0 -1000 1000
      vertex -793 0 1000
      vertex -1000 0 1000
    endloop
  endfacet
  facet normal 0.615457 -0.615457 -0.492366
    outer loop
      vertex 1000 0 1000
      vertex 0 -200 0
      vertex 200 0 0
    endloop
  endfacet
  facet normal 0.615457 -0.615457 -0.492366
    outer loop
      vertex 0 -200 0
      vertex 1000 0 1000
      vertex 0 -1000 1000
    endloop
  endfacet
  facet normal -0.615457 -0.615457 -0.492366
    outer loop
      vertex 0 -200 0
      vertex -1000 0 1000
      vertex -200 0 0
    endloop
  endfacet
  facet normal -0.615457 -0.615457 -0.492366
    outer loop
      vertex -1000 0 1000
      vertex 0 -200 0
      vertex 0 -1000 1000
    endloop
  endfacet
  facet normal 0 0 -1
    outer loop
      vertex 0 -200 0
      vertex 0 200 0
      vertex 200 0 0
    endloop
  endfacet
  facet normal 0 -0 -1
    outer loop
      vertex 0 200 0
      vertex 0 -200 0
      vertex -200 0 0
    endloop
  endfacet
  facet normal -0.633724 -0.633724 0.443607
    outer loop
      vertex 793 0 1000
      vertex 0 100 10
      vertex 100 0 10
    endloop
  endfacet
  facet normal -0.633724 -0.633724 0.443607
    outer loop
      vertex 0 100 10
      vertex 793 0 1000
      vertex 0 793 1000
    endloop
  endfacet
  facet normal 0.633724 -0.633724 0.443607
    outer loop
      vertex -793 0 1000
      vertex 0 100 10
      vertex 0 793 1000
    endloop
  endfacet
  facet normal 0.633724 -0.633724 0.443607
    outer loop
      vertex 0 100 10
      vertex -793 0 1000
      vertex -100 0 10
    endloop
  endfacet
  facet normal 0 0 1
    outer loop
      vertex 0 100 10
      vertex 0 -100 10
      vertex 100 0 10
    endloop
  endfacet
  facet normal 0 -0 1
    outer loop
      vertex 0 -100 10
      vertex 0 100 10
      vertex -100 0 10
    endloop
  endfacet
  facet normal -0.633724 0.633724 0.443607
    outer loop
      vertex 0 -100 10
      vertex 793 0 1000
      vertex 100 0 10
    endloop
  endfacet
  facet normal -0.633724 0.633724 0.443607
    outer loop
      vertex 793 0 1000
      vertex 0 -100 10
      vertex 0 -793 1000
    endloop
  endfacet
  facet normal 0.633724 0.633724 0.443607
    outer loop
      vertex -793 0 1000
      vertex 0 -100 10
      vertex -100 0 10
    endloop
  endfacet
  facet normal 0.633724 0.633724 0.443607
    outer loop
      vertex 0 -100 10
      vertex -793 0 1000
      vertex 0 -793 1000
    endloop
  endfacet
endsolid OpenSCAD_Model
