solid OpenSCAD_Model
  facet normal 0.92388 0.382683 0
    outer loop
      vertex 100 0 100
      vertex 70.7107 70.7107 0
      vertex 70.7107 70.7107 100
    endloop
  endfacet
  facet normal 0.92388 0.382683 0
    outer loop
      vertex 70.7107 70.7107 0
      vertex 100 0 100
      vertex 100 0 0
    endloop
  endfacet
  facet normal -0.92388 0.382683 0
    outer loop
      vertex -100 0 0
      vertex -70.7107 70.7107 100
      vertex -70.7107 70.7107 0
    endloop
  endfacet
  facet normal -0.92388 0.382683 0
    outer loop
      vertex -70.7107 70.7107 100
      vertex -100 0 0
      vertex -100 0 100
    endloop
  endfacet
  facet normal 0.382683 0.92388 -0
    outer loop
      vertex 70.7107 70.7107 0
      vertex 0 100 100
      vertex 70.7107 70.7107 100
    endloop
  endfacet
  facet normal 0.382683 0.92388 0
    outer loop
      vertex 0 100 100
      vertex 70.7107 70.7107 0
      vertex 0 100 0
    endloop
  endfacet
  facet normal 0 0 -1
    outer loop
      vertex 60 0 0
      vertex 100 0 0
      vertex 70.7107 -70.7107 0
    endloop
  endfacet
  facet normal 0 0 -1
    outer loop
      vertex 100 0 0
      vertex 60 0 0
      vertex 70.7107 70.7107 0
    endloop
  endfacet
  facet normal 0 0 -1
    outer loop
      vertex 70.7107 -70.7107 0
      vertex 18.541 -57.0634 0
      vertex 60 0 0
    endloop
  endfacet
  facet normal 0 0 -1
    outer loop
      vertex 0 -100 0
      vertex 18.541 -57.0634 0
      vertex 70.7107 -70.7107 0
    endloop
  endfacet
  facet normal 0 0 -1
    outer loop
      vertex 0 -100 0
      vertex -48.541 -35.2671 0
      vertex 18.541 -57.0634 0
    endloop
  endfacet
  facet normal 0 0 -1
    outer loop
      vertex -100 0 0
      vertex -48.541 -35.2671 0
      vertex -70.7107 -70.7107 0
    endloop
  endfacet
  facet normal 0 0 -1
    outer loop
      vertex -70.7107 -70.7107 0
      vertex -48.541 -35.2671 0
      vertex 0 -100 0
    endloop
  endfacet
  facet normal 0 0 -1
    outer loop
      vertex 18.541 57.0634 0
      vertex 70.7107 70.7107 0
      vertex 60 0 0
    endloop
  endfacet
  facet normal 0 0 -1
    outer loop
      vertex 18.541 57.0634 0
      vertex 0 100 0
      vertex 70.7107 70.7107 0
    endloop
  endfacet
  facet normal 0 0 -1
    outer loop
      vertex -48.541 35.2671 0
      vertex 0 100 0
      vertex 18.541 57.0634 0
    endloop
  endfacet
  facet normal 0 0 -1
    outer loop
      vertex -48.541 35.2671 0
      vertex -70.7107 70.7107 0
      vertex 0 100 0
    endloop
  endfacet
  facet normal 0 0 -1
    outer loop
      vertex -48.541 -35.2671 0
      vertex -100 0 0
      vertex -48.541 35.2671 0
    endloop
  endfacet
  facet normal -0 0 -1
    outer loop
      vertex -48.541 35.2671 0
      vertex -100 0 0
      vertex -70.7107 70.7107 0
    endloop
  endfacet
  facet normal 0 0 1
    outer loop
      vertex 60 0 100
      vertex 100 0 100
      vertex 70.7107 70.7107 100
    endloop
  endfacet
  facet normal 0 0 1
    outer loop
      vertex 100 0 100
      vertex 60 0 100
      vertex 70.7107 -70.7107 100
    endloop
  endfacet
  facet normal 0 0 1
    outer loop
      vertex 70.7107 70.7107 100
      vertex 18.541 57.0634 100
      vertex 60 0 100
    endloop
  endfacet
  facet normal 0 0 1
    outer loop
      vertex 0 100 100
      vertex 18.541 57.0634 100
      vertex 70.7107 70.7107 100
    endloop
  endfacet
  facet normal 0 0 1
    outer loop
      vertex 0 100 100
      vertex -48.541 35.2671 100
      vertex 18.541 57.0634 100
    endloop
  endfacet
  facet normal 0 0 1
    outer loop
      vertex -100 0 100
      vertex -48.541 35.2671 100
      vertex -70.7107 70.7107 100
    endloop
  endfacet
  facet normal -0 0 1
    outer loop
      vertex -70.7107 70.7107 100
      vertex -48.541 35.2671 100
      vertex 0 100 100
    endloop
  endfacet
  facet normal -0 0 1
    outer loop
      vertex 18.541 -57.0634 100
      vertex 70.7107 -70.7107 100
      vertex 60 0 100
    endloop
  endfacet
  facet normal 0 0 1
    outer loop
      vertex 18.541 -57.0634 100
      vertex 0 -100 100
      vertex 70.7107 -70.7107 100
    endloop
  endfacet
  facet normal 0 0 1
    outer loop
      vertex -48.541 -35.2671 100
      vertex 0 -100 100
      vertex 18.541 -57.0634 100
    endloop
  endfacet
  facet normal 0 0 1
    outer loop
      vertex -48.541 -35.2671 100
      vertex -70.7107 -70.7107 100
      vertex 0 -100 100
    endloop
  endfacet
  facet normal 0 0 1
    outer loop
      vertex -48.541 35.2671 100
      vertex -100 0 100
      vertex -48.541 -35.2671 100
    endloop
  endfacet
  facet normal 0 0 1
    outer loop
      vertex -48.541 -35.2671 100
      vertex -100 0 100
      vertex -70.7107 -70.7107 100
    endloop
  endfacet
  facet normal -0.382683 0.92388 0
    outer loop
      vertex 0 100 0
      vertex -70.7107 70.7107 100
      vertex 0 100 100
    endloop
  endfacet
  facet normal -0.382683 0.92388 0
    outer loop
      vertex -70.7107 70.7107 100
      vertex 0 100 0
      vertex -70.7107 70.7107 0
    endloop
  endfacet
  facet normal 0.382683 -0.92388 0
    outer loop
      vertex 0 -100 0
      vertex 70.7107 -70.7107 100
      vertex 0 -100 100
    endloop
  endfacet
  facet normal 0.382683 -0.92388 0
    outer loop
      vertex 70.7107 -70.7107 100
      vertex 0 -100 0
      vertex 70.7107 -70.7107 0
    endloop
  endfacet
  facet normal -0.92388 -0.382683 0
    outer loop
      vertex -70.7107 -70.7107 0
      vertex -100 0 100
      vertex -100 0 0
    endloop
  endfacet
  facet normal -0.92388 -0.382683 0
    outer loop
      vertex -100 0 100
      vertex -70.7107 -70.7107 0
      vertex -70.7107 -70.7107 100
    endloop
  endfacet
  facet normal 0.92388 -0.382683 0
    outer loop
      vertex 70.7107 -70.7107 100
      vertex 100 0 0
      vertex 100 0 100
    endloop
  endfacet
  facet normal 0.92388 -0.382683 0
    outer loop
      vertex 100 0 0
      vertex 70.7107 -70.7107 100
      vertex 70.7107 -70.7107 0
    endloop
  endfacet
  facet normal -0.382683 -0.92388 0
    outer loop
      vertex -70.7107 -70.7107 0
      vertex 0 -100 100
      vertex -70.7107 -70.7107 100
    endloop
  endfacet
  facet normal -0.382683 -0.92388 -0
    outer loop
      vertex 0 -100 100
      vertex -70.7107 -70.7107 0
      vertex 0 -100 0
    endloop
  endfacet
  facet normal -0.809017 -0.587785 0
    outer loop
      vertex 60 0 0
      vertex 18.541 57.0634 100
      vertex 18.541 57.0634 0
    endloop
  endfacet
  facet normal -0.809017 -0.587785 0
    outer loop
      vertex 18.541 57.0634 100
      vertex 60 0 0
      vertex 60 0 100
    endloop
  endfacet
  facet normal 1 -0 0
    outer loop
      vertex -48.541 -35.2671 100
      vertex -48.541 35.2671 0
      vertex -48.541 35.2671 100
    endloop
  endfacet
  facet normal 1 0 0
    outer loop
      vertex -48.541 35.2671 0
      vertex -48.541 -35.2671 100
      vertex -48.541 -35.2671 0
    endloop
  endfacet
  facet normal 0.309017 -0.951056 0
    outer loop
      vertex -48.541 35.2671 0
      vertex 18.541 57.0634 100
      vertex -48.541 35.2671 100
    endloop
  endfacet
  facet normal 0.309017 -0.951056 0
    outer loop
      vertex 18.541 57.0634 100
      vertex -48.541 35.2671 0
      vertex 18.541 57.0634 0
    endloop
  endfacet
  facet normal -0.809017 0.587785 0
    outer loop
      vertex 18.541 -57.0634 0
      vertex 60 0 100
      vertex 60 0 0
    endloop
  endfacet
  facet normal -0.809017 0.587785 0
    outer loop
      vertex 60 0 100
      vertex 18.541 -57.0634 0
      vertex 18.541 -57.0634 100
    endloop
  endfacet
  facet normal 0.309017 0.951056 -0
    outer loop
      vertex 18.541 -57.0634 0
      vertex -48.541 -35.2671 100
      vertex 18.541 -57.0634 100
    endloop
  endfacet
  facet normal 0.309017 0.951056 0
    outer loop
      vertex -48.541 -35.2671 100
      vertex 18.541 -57.0634 0
      vertex -48.541 -35.2671 0
    endloop
  endfacet
endsolid OpenSCAD_Model
