solid OpenSCAD_Model
  facet normal 0.994522 0.104529 0
    outer loop
      vertex 100 0 100
      vertex 97.8148 20.7912 0
      vertex 97.8148 20.7912 100
    endloop
  endfacet
  facet normal 0.994522 0.104529 0
    outer loop
      vertex 97.8148 20.7912 0
      vertex 100 0 100
      vertex 100 0 0
    endloop
  endfacet
  facet normal -0.994522 0.104529 0
    outer loop
      vertex -100 0 0
      vertex -97.8148 20.7912 100
      vertex -97.8148 20.7912 0
    endloop
  endfacet
  facet normal -0.994522 0.104529 0
    outer loop
      vertex -97.8148 20.7912 100
      vertex -100 0 0
      vertex -100 0 100
    endloop
  endfacet
  facet normal 0 1 -0
    outer loop
      vertex 10.4528 99.4522 0
      vertex -10.4528 99.4522 100
      vertex 10.4528 99.4522 100
    endloop
  endfacet
  facet normal 0 1 0
    outer loop
      vertex -10.4528 99.4522 100
      vertex 10.4528 99.4522 0
      vertex -10.4528 99.4522 0
    endloop
  endfacet
  facet normal 0 -1 0
    outer loop
      vertex -10.4528 -99.4522 0
      vertex 10.4528 -99.4522 100
      vertex -10.4528 -99.4522 100
    endloop
  endfacet
  facet normal 0 -1 -0
    outer loop
      vertex 10.4528 -99.4522 100
      vertex -10.4528 -99.4522 0
      vertex 10.4528 -99.4522 0
    endloop
  endfacet
  facet normal 0.587785 0.809017 -0
    outer loop
      vertex 66.9131 74.3145 0
      vertex 50 86.6025 100
      vertex 66.9131 74.3145 100
    endloop
  endfacet
  facet normal 0.587785 0.809017 0
    outer loop
      vertex 50 86.6025 100
      vertex 66.9131 74.3145 0
      vertex 50 86.6025 0
    endloop
  endfacet
  facet normal -0.587785 0.809017 0
    outer loop
      vertex -50 86.6025 0
      vertex -66.9131 74.3145 100
      vertex -50 86.6025 100
    endloop
  endfacet
  facet normal -0.587785 0.809017 0
    outer loop
      vertex -66.9131 74.3145 100
      vertex -50 86.6025 0
      vertex -66.9131 74.3145 0
    endloop
  endfacet
  facet normal -0.406737 0.913545 0
    outer loop
      vertex -30.9017 95.1057 0
      vertex -50 86.6025 100
      vertex -30.9017 95.1057 100
    endloop
  endfacet
  facet normal -0.406737 0.913545 0
    outer loop
      vertex -50 86.6025 100
      vertex -30.9017 95.1057 0
      vertex -50 86.6025 0
    endloop
  endfacet
  facet normal 0.866025 0.5 0
    outer loop
      vertex 91.3545 40.6737 100
      vertex 80.9017 58.7785 0
      vertex 80.9017 58.7785 100
    endloop
  endfacet
  facet normal 0.866025 0.5 0
    outer loop
      vertex 80.9017 58.7785 0
      vertex 91.3545 40.6737 100
      vertex 91.3545 40.6737 0
    endloop
  endfacet
  facet normal 0.951057 0.309017 0
    outer loop
      vertex 97.8148 20.7912 100
      vertex 91.3545 40.6737 0
      vertex 91.3545 40.6737 100
    endloop
  endfacet
  facet normal 0.951057 0.309017 0
    outer loop
      vertex 91.3545 40.6737 0
      vertex 97.8148 20.7912 100
      vertex 97.8148 20.7912 0
    endloop
  endfacet
  facet normal 0.743145 0.669131 0
    outer loop
      vertex 80.9017 58.7785 100
      vertex 66.9131 74.3145 0
      vertex 66.9131 74.3145 100
    endloop
  endfacet
  facet normal 0.743145 0.669131 0
    outer loop
      vertex 66.9131 74.3145 0
      vertex 80.9017 58.7785 100
      vertex 80.9017 58.7785 0
    endloop
  endfacet
  facet normal 0.207912 0.978148 -0
    outer loop
      vertex 30.9017 95.1057 0
      vertex 10.4528 99.4522 100
      vertex 30.9017 95.1057 100
    endloop
  endfacet
  facet normal 0.207912 0.978148 0
    outer loop
      vertex 10.4528 99.4522 100
      vertex 30.9017 95.1057 0
      vertex 10.4528 99.4522 0
    endloop
  endfacet
  facet normal 0.406737 0.913545 -0
    outer loop
      vertex 50 86.6025 0
      vertex 30.9017 95.1057 100
      vertex 50 86.6025 100
    endloop
  endfacet
  facet normal 0.406737 0.913545 0
    outer loop
      vertex 30.9017 95.1057 100
      vertex 50 86.6025 0
      vertex 30.9017 95.1057 0
    endloop
  endfacet
  facet normal -0.866025 0.5 0
    outer loop
      vertex -91.3545 40.6737 0
      vertex -80.9017 58.7785 100
      vertex -80.9017 58.7785 0
    endloop
  endfacet
  facet normal -0.866025 0.5 0
    outer loop
      vertex -80.9017 58.7785 100
      vertex -91.3545 40.6737 0
      vertex -91.3545 40.6737 100
    endloop
  endfacet
  facet normal -0.743145 0.669131 0
    outer loop
      vertex -80.9017 58.7785 0
      vertex -66.9131 74.3145 100
      vertex -66.9131 74.3145 0
    endloop
  endfacet
  facet normal -0.743145 0.669131 0
    outer loop
      vertex -66.9131 74.3145 100
      vertex -80.9017 58.7785 0
      vertex -80.9017 58.7785 100
    endloop
  endfacet
  facet normal -0.951057 0.309017 0
    outer loop
      vertex -97.8148 20.7912 0
      vertex -91.3545 40.6737 100
      vertex -91.3545 40.6737 0
    endloop
  endfacet
  facet normal -0.951057 0.309017 0
    outer loop
      vertex -91.3545 40.6737 100
      vertex -97.8148 20.7912 0
      vertex -97.8148 20.7912 100
    endloop
  endfacet
  facet normal -0 0 1
    outer loop
      vertex 89.3379 18.1923 100
      vertex 100 0 100
      vertex 97.8148 20.7912 100
    endloop
  endfacet
  facet normal 0 0 1
    outer loop
      vertex 89.0137 19.7175 100
      vertex 97.8148 20.7912 100
      vertex 91.3545 40.6737 100
    endloop
  endfacet
  facet normal 0 0 1
    outer loop
      vertex 89.3379 -18.1923 100
      vertex 100 0 100
      vertex 91.25 0 100
    endloop
  endfacet
  facet normal 0 0 1
    outer loop
      vertex 100 0 100
      vertex 89.3379 -18.1923 100
      vertex 97.8148 -20.7912 100
    endloop
  endfacet
  facet normal 0 0 1
    outer loop
      vertex 100 0 100
      vertex 89.3379 18.1923 100
      vertex 91.25 0 100
    endloop
  endfacet
  facet normal 0 0 1
    outer loop
      vertex 97.8148 20.7912 100
      vertex 89.256 18.9719 100
      vertex 89.3379 18.1923 100
    endloop
  endfacet
  facet normal 0 0 1
    outer loop
      vertex 97.8148 20.7912 100
      vertex 89.0137 19.7175 100
      vertex 89.256 18.9719 100
    endloop
  endfacet
  facet normal 0 0 1
    outer loop
      vertex 91.3545 40.6737 100
      vertex 83.361 37.1147 100
      vertex 89.0137 19.7175 100
    endloop
  endfacet
  facet normal 0 0 1
    outer loop
      vertex 91.3545 40.6737 100
      vertex 82.969 37.7937 100
      vertex 83.361 37.1147 100
    endloop
  endfacet
  facet normal 0 0 1
    outer loop
      vertex 80.9017 58.7785 100
      vertex 82.969 37.7937 100
      vertex 91.3545 40.6737 100
    endloop
  endfacet
  facet normal 0 0 1
    outer loop
      vertex 80.9017 58.7785 100
      vertex 73.8228 53.6354 100
      vertex 82.969 37.7937 100
    endloop
  endfacet
  facet normal -0 0 1
    outer loop
      vertex 61.5827 67.2294 100
      vertex 80.9017 58.7785 100
      vertex 66.9131 74.3145 100
    endloop
  endfacet
  facet normal 0 0 1
    outer loop
      vertex 80.9017 58.7785 100
      vertex 61.5827 67.2294 100
      vertex 73.8228 53.6354 100
    endloop
  endfacet
  facet normal 0 0 1
    outer loop
      vertex 66.9131 74.3145 100
      vertex 61.0582 67.812 100
      vertex 61.5827 67.2294 100
    endloop
  endfacet
  facet normal 0 0 1
    outer loop
      vertex 66.9131 74.3145 100
      vertex 60.4239 68.2728 100
      vertex 61.0582 67.812 100
    endloop
  endfacet
  facet normal 0 0 1
    outer loop
      vertex 50 86.6025 100
      vertex 60.4239 68.2728 100
      vertex 66.9131 74.3145 100
    endloop
  endfacet
  facet normal 0 0 1
    outer loop
      vertex 50 86.6025 100
      vertex 45.625 79.0248 100
      vertex 60.4239 68.2728 100
    endloop
  endfacet
  facet normal 0 0 1
    outer loop
      vertex 50 86.6025 100
      vertex 44.9088 79.3437 100
      vertex 45.625 79.0248 100
    endloop
  endfacet
  facet normal 0 0 1
    outer loop
      vertex 30.9017 95.1057 100
      vertex 44.9088 79.3437 100
      vertex 50 86.6025 100
    endloop
  endfacet
  facet normal 0 0 1
    outer loop
      vertex 30.9017 95.1057 100
      vertex 28.1978 86.7839 100
      vertex 44.9088 79.3437 100
    endloop
  endfacet
  facet normal 0 0 1
    outer loop
      vertex 10.3051 90.5871 100
      vertex 30.9017 95.1057 100
      vertex 10.4528 99.4522 100
    endloop
  endfacet
  facet normal 0 0 1
    outer loop
      vertex 30.9017 95.1057 100
      vertex 10.3051 90.5871 100
      vertex 28.1978 86.7839 100
    endloop
  endfacet
  facet normal 0 0 1
    outer loop
      vertex 10.4528 99.4522 100
      vertex 9.53822 90.7501 100
      vertex 10.3051 90.5871 100
    endloop
  endfacet
  facet normal 0 0 1
    outer loop
      vertex 10.4528 99.4522 100
      vertex -9.53822 90.7501 100
      vertex 9.53822 90.7501 100
    endloop
  endfacet
  facet normal -0 0 1
    outer loop
      vertex -10.4528 99.4522 100
      vertex -9.53822 90.7501 100
      vertex 10.4528 99.4522 100
    endloop
  endfacet
  facet normal 0 0 1
    outer loop
      vertex -9.53822 90.7501 100
      vertex -10.4528 99.4522 100
      vertex -10.3051 90.5871 100
    endloop
  endfacet
  facet normal -0 0 1
    outer loop
      vertex -30.9017 95.1057 100
      vertex -10.3051 90.5871 100
      vertex -10.4528 99.4522 100
    endloop
  endfacet
  facet normal 0 0 1
    outer loop
      vertex -10.3051 90.5871 100
      vertex -30.9017 95.1057 100
      vertex -28.1978 86.7839 100
    endloop
  endfacet
  facet normal 0 0 1
    outer loop
      vertex -30.9017 95.1057 100
      vertex -44.9088 79.3437 100
      vertex -28.1978 86.7839 100
    endloop
  endfacet
  facet normal -0 0 1
    outer loop
      vertex -50 86.6025 100
      vertex -44.9088 79.3437 100
      vertex -30.9017 95.1057 100
    endloop
  endfacet
  facet normal 0 0 1
    outer loop
      vertex -44.9088 79.3437 100
      vertex -50 86.6025 100
      vertex -45.625 79.0248 100
    endloop
  endfacet
  facet normal 0 0 1
    outer loop
      vertex -50 86.6025 100
      vertex -60.4239 68.2728 100
      vertex -45.625 79.0248 100
    endloop
  endfacet
  facet normal -0 0 1
    outer loop
      vertex -66.9131 74.3145 100
      vertex -60.4239 68.2728 100
      vertex -50 86.6025 100
    endloop
  endfacet
  facet normal 0 0 1
    outer loop
      vertex -60.4239 68.2728 100
      vertex -66.9131 74.3145 100
      vertex -61.0582 67.812 100
    endloop
  endfacet
  facet normal 0 0 1
    outer loop
      vertex -61.0582 67.812 100
      vertex -66.9131 74.3145 100
      vertex -61.5827 67.2294 100
    endloop
  endfacet
  facet normal 0 0 1
    outer loop
      vertex -80.9017 58.7785 100
      vertex -61.5827 67.2294 100
      vertex -66.9131 74.3145 100
    endloop
  endfacet
  facet normal 0 0 1
    outer loop
      vertex -61.5827 67.2294 100
      vertex -80.9017 58.7785 100
      vertex -73.8228 53.6354 100
    endloop
  endfacet
  facet normal 0 0 1
    outer loop
      vertex -80.9017 58.7785 100
      vertex -82.969 37.7937 100
      vertex -73.8228 53.6354 100
    endloop
  endfacet
  facet normal -0 0 1
    outer loop
      vertex -91.3545 40.6737 100
      vertex -82.969 37.7937 100
      vertex -80.9017 58.7785 100
    endloop
  endfacet
  facet normal 0 0 1
    outer loop
      vertex -82.969 37.7937 100
      vertex -91.3545 40.6737 100
      vertex -83.361 37.1147 100
    endloop
  endfacet
  facet normal 0 0 1
    outer loop
      vertex -83.361 37.1147 100
      vertex -91.3545 40.6737 100
      vertex -89.0137 19.7175 100
    endloop
  endfacet
  facet normal 0 0 1
    outer loop
      vertex -89.256 18.9719 100
      vertex -97.8148 20.7912 100
      vertex -89.3379 18.1923 100
    endloop
  endfacet
  facet normal 0 0 1
    outer loop
      vertex -89.0137 19.7175 100
      vertex -97.8148 20.7912 100
      vertex -89.256 18.9719 100
    endloop
  endfacet
  facet normal -0 0 1
    outer loop
      vertex -97.8148 20.7912 100
      vertex -89.0137 19.7175 100
      vertex -91.3545 40.6737 100
    endloop
  endfacet
  facet normal -0 0 1
    outer loop
      vertex 89.256 -18.9719 100
      vertex 97.8148 -20.7912 100
      vertex 89.3379 -18.1923 100
    endloop
  endfacet
  facet normal -0 0 1
    outer loop
      vertex 89.0137 -19.7175 100
      vertex 97.8148 -20.7912 100
      vertex 89.256 -18.9719 100
    endloop
  endfacet
  facet normal 0 0 1
    outer loop
      vertex 97.8148 -20.7912 100
      vertex 89.0137 -19.7175 100
      vertex 91.3545 -40.6737 100
    endloop
  endfacet
  facet normal -0 0 1
    outer loop
      vertex 83.361 -37.1147 100
      vertex 91.3545 -40.6737 100
      vertex 89.0137 -19.7175 100
    endloop
  endfacet
  facet normal -0 0 1
    outer loop
      vertex 82.969 -37.7937 100
      vertex 91.3545 -40.6737 100
      vertex 83.361 -37.1147 100
    endloop
  endfacet
  facet normal 0 0 1
    outer loop
      vertex 82.969 -37.7937 100
      vertex 80.9017 -58.7785 100
      vertex 91.3545 -40.6737 100
    endloop
  endfacet
  facet normal -0 0 1
    outer loop
      vertex 73.8228 -53.6354 100
      vertex 80.9017 -58.7785 100
      vertex 82.969 -37.7937 100
    endloop
  endfacet
  facet normal 0 0 1
    outer loop
      vertex 61.5827 -67.2294 100
      vertex 80.9017 -58.7785 100
      vertex 73.8228 -53.6354 100
    endloop
  endfacet
  facet normal 0 0 1
    outer loop
      vertex 80.9017 -58.7785 100
      vertex 61.5827 -67.2294 100
      vertex 66.9131 -74.3145 100
    endloop
  endfacet
  facet normal -0 0 1
    outer loop
      vertex 61.0582 -67.812 100
      vertex 66.9131 -74.3145 100
      vertex 61.5827 -67.2294 100
    endloop
  endfacet
  facet normal -0 0 1
    outer loop
      vertex 60.4239 -68.2728 100
      vertex 66.9131 -74.3145 100
      vertex 61.0582 -67.812 100
    endloop
  endfacet
  facet normal 0 0 1
    outer loop
      vertex 60.4239 -68.2728 100
      vertex 50 -86.6025 100
      vertex 66.9131 -74.3145 100
    endloop
  endfacet
  facet normal -0 0 1
    outer loop
      vertex 45.625 -79.0248 100
      vertex 50 -86.6025 100
      vertex 60.4239 -68.2728 100
    endloop
  endfacet
  facet normal -0 0 1
    outer loop
      vertex 44.9088 -79.3437 100
      vertex 50 -86.6025 100
      vertex 45.625 -79.0248 100
    endloop
  endfacet
  facet normal 0 0 1
    outer loop
      vertex 44.9088 -79.3437 100
      vertex 30.9017 -95.1057 100
      vertex 50 -86.6025 100
    endloop
  endfacet
  facet normal -0 0 1
    outer loop
      vertex 28.1978 -86.7839 100
      vertex 30.9017 -95.1057 100
      vertex 44.9088 -79.3437 100
    endloop
  endfacet
  facet normal -0 0 1
    outer loop
      vertex 10.3051 -90.5871 100
      vertex 30.9017 -95.1057 100
      vertex 28.1978 -86.7839 100
    endloop
  endfacet
  facet normal 0 0 1
    outer loop
      vertex 30.9017 -95.1057 100
      vertex 10.3051 -90.5871 100
      vertex 10.4528 -99.4522 100
    endloop
  endfacet
  facet normal -0 0 1
    outer loop
      vertex 9.53822 -90.7501 100
      vertex 10.4528 -99.4522 100
      vertex 10.3051 -90.5871 100
    endloop
  endfacet
  facet normal -0 0 1
    outer loop
      vertex -9.53822 -90.7501 100
      vertex 10.4528 -99.4522 100
      vertex 9.53822 -90.7501 100
    endloop
  endfacet
  facet normal 0 0 1
    outer loop
      vertex -10.4528 -99.4522 100
      vertex -9.53822 -90.7501 100
      vertex -10.3051 -90.5871 100
    endloop
  endfacet
  facet normal 0 0 1
    outer loop
      vertex -9.53822 -90.7501 100
      vertex -10.4528 -99.4522 100
      vertex 10.4528 -99.4522 100
    endloop
  endfacet
  facet normal 0 0 1
    outer loop
      vertex -30.9017 -95.1057 100
      vertex -10.3051 -90.5871 100
      vertex -28.1978 -86.7839 100
    endloop
  endfacet
  facet normal 0 0 1
    outer loop
      vertex -10.3051 -90.5871 100
      vertex -30.9017 -95.1057 100
      vertex -10.4528 -99.4522 100
    endloop
  endfacet
  facet normal 0 0 1
    outer loop
      vertex -44.9088 -79.3437 100
      vertex -30.9017 -95.1057 100
      vertex -28.1978 -86.7839 100
    endloop
  endfacet
  facet normal 0 0 1
    outer loop
      vertex -50 -86.6025 100
      vertex -44.9088 -79.3437 100
      vertex -45.625 -79.0248 100
    endloop
  endfacet
  facet normal 0 0 1
    outer loop
      vertex -44.9088 -79.3437 100
      vertex -50 -86.6025 100
      vertex -30.9017 -95.1057 100
    endloop
  endfacet
  facet normal 0 0 1
    outer loop
      vertex -60.4239 -68.2728 100
      vertex -50 -86.6025 100
      vertex -45.625 -79.0248 100
    endloop
  endfacet
  facet normal 0 0 1
    outer loop
      vertex -66.9131 -74.3145 100
      vertex -60.4239 -68.2728 100
      vertex -61.0582 -67.812 100
    endloop
  endfacet
  facet normal 0 0 1
    outer loop
      vertex -66.9131 -74.3145 100
      vertex -61.0582 -67.812 100
      vertex -61.5827 -67.2294 100
    endloop
  endfacet
  facet normal 0 0 1
    outer loop
      vertex -60.4239 -68.2728 100
      vertex -66.9131 -74.3145 100
      vertex -50 -86.6025 100
    endloop
  endfacet
  facet normal -0 0 1
    outer loop
      vertex -80.9017 -58.7785 100
      vertex -61.5827 -67.2294 100
      vertex -73.8228 -53.6354 100
    endloop
  endfacet
  facet normal 0 0 1
    outer loop
      vertex -61.5827 -67.2294 100
      vertex -80.9017 -58.7785 100
      vertex -66.9131 -74.3145 100
    endloop
  endfacet
  facet normal 0 0 1
    outer loop
      vertex -82.969 -37.7937 100
      vertex -80.9017 -58.7785 100
      vertex -73.8228 -53.6354 100
    endloop
  endfacet
  facet normal 0 0 1
    outer loop
      vertex -91.3545 -40.6737 100
      vertex -82.969 -37.7937 100
      vertex -83.361 -37.1147 100
    endloop
  endfacet
  facet normal 0 0 1
    outer loop
      vertex -91.3545 -40.6737 100
      vertex -83.361 -37.1147 100
      vertex -89.0137 -19.7175 100
    endloop
  endfacet
  facet normal 0 0 1
    outer loop
      vertex -97.8148 -20.7912 100
      vertex -89.0137 -19.7175 100
      vertex -89.256 -18.9719 100
    endloop
  endfacet
  facet normal 0 0 1
    outer loop
      vertex -82.969 -37.7937 100
      vertex -91.3545 -40.6737 100
      vertex -80.9017 -58.7785 100
    endloop
  endfacet
  facet normal 0 0 1
    outer loop
      vertex -97.8148 -20.7912 100
      vertex -89.256 -18.9719 100
      vertex -89.3379 -18.1923 100
    endloop
  endfacet
  facet normal -0 0 1
    outer loop
      vertex -100 0 100
      vertex -89.3379 -18.1923 100
      vertex -91.25 0 100
    endloop
  endfacet
  facet normal 0 0 1
    outer loop
      vertex -100 0 100
      vertex -89.3379 18.1923 100
      vertex -97.8148 20.7912 100
    endloop
  endfacet
  facet normal 0 0 1
    outer loop
      vertex -89.3379 18.1923 100
      vertex -100 0 100
      vertex -91.25 0 100
    endloop
  endfacet
  facet normal 0 0 1
    outer loop
      vertex -89.0137 -19.7175 100
      vertex -97.8148 -20.7912 100
      vertex -91.3545 -40.6737 100
    endloop
  endfacet
  facet normal 0 0 1
    outer loop
      vertex -89.3379 -18.1923 100
      vertex -100 0 100
      vertex -97.8148 -20.7912 100
    endloop
  endfacet
  facet normal -0.207912 0.978148 0
    outer loop
      vertex -10.4528 99.4522 0
      vertex -30.9017 95.1057 100
      vertex -10.4528 99.4522 100
    endloop
  endfacet
  facet normal -0.207912 0.978148 0
    outer loop
      vertex -30.9017 95.1057 100
      vertex -10.4528 99.4522 0
      vertex -30.9017 95.1057 0
    endloop
  endfacet
  facet normal 0.994522 -0.104529 0
    outer loop
      vertex 97.8148 -20.7912 100
      vertex 100 0 0
      vertex 100 0 100
    endloop
  endfacet
  facet normal 0.994522 -0.104529 0
    outer loop
      vertex 100 0 0
      vertex 97.8148 -20.7912 100
      vertex 97.8148 -20.7912 0
    endloop
  endfacet
  facet normal 0 0 -1
    outer loop
      vertex 32.8256 -0.866299 0
      vertex 100 0 0
      vertex 97.8148 -20.7912 0
    endloop
  endfacet
  facet normal 0 0 -1
    outer loop
      vertex 30.34 -12.56 0
      vertex 97.8148 -20.7912 0
      vertex 91.3545 -40.6737 0
    endloop
  endfacet
  facet normal -0 0 -1
    outer loop
      vertex 100 0 0
      vertex 32.8256 -0.866299 0
      vertex 32.9167 0 0
    endloop
  endfacet
  facet normal 0 0 -1
    outer loop
      vertex 27.0657 -18.5936 0
      vertex 91.3545 -40.6737 0
      vertex 80.9017 -58.7785 0
    endloop
  endfacet
  facet normal 0 0 -1
    outer loop
      vertex 32.8256 0.866299 0
      vertex 100 0 0
      vertex 32.9167 0 0
    endloop
  endfacet
  facet normal 0 0 -1
    outer loop
      vertex 26.0473 -19.9953 0
      vertex 80.9017 -58.7785 0
      vertex 66.9131 -74.3145 0
    endloop
  endfacet
  facet normal 0 0 -1
    outer loop
      vertex 100 0 0
      vertex 32.8256 0.866299 0
      vertex 97.8148 20.7912 0
    endloop
  endfacet
  facet normal 0 0 -1
    outer loop
      vertex 17.163 -27.9947 0
      vertex 66.9131 -74.3145 0
      vertex 50 -86.6025 0
    endloop
  endfacet
  facet normal 0 0 -1
    outer loop
      vertex 32.1974 6.84376 0
      vertex 97.8148 20.7912 0
      vertex 32.8256 0.866299 0
    endloop
  endfacet
  facet normal -0 0 -1
    outer loop
      vertex 97.8148 20.7912 0
      vertex 30.34 12.56 0
      vertex 91.3545 40.6737 0
    endloop
  endfacet
  facet normal 0 0 -1
    outer loop
      vertex 30.34 12.56 0
      vertex 97.8148 20.7912 0
      vertex 32.1974 6.84376 0
    endloop
  endfacet
  facet normal 0 0 -1
    outer loop
      vertex 97.8148 -20.7912 0
      vertex 32.1974 -6.84376 0
      vertex 32.8256 -0.866299 0
    endloop
  endfacet
  facet normal 0 0 -1
    outer loop
      vertex 10.9676 -30.9513 0
      vertex 50 -86.6025 0
      vertex 30.9017 -95.1057 0
    endloop
  endfacet
  facet normal 0 0 -1
    outer loop
      vertex 97.8148 -20.7912 0
      vertex 30.34 -12.56 0
      vertex 32.1974 -6.84376 0
    endloop
  endfacet
  facet normal 0 0 -1
    outer loop
      vertex 91.3545 -40.6737 0
      vertex 30.0709 -13.3884 0
      vertex 30.34 -12.56 0
    endloop
  endfacet
  facet normal 0 0 -1
    outer loop
      vertex 91.3545 -40.6737 0
      vertex 27.0657 -18.5936 0
      vertex 30.0709 -13.3884 0
    endloop
  endfacet
  facet normal 0 0 -1
    outer loop
      vertex 80.9017 -58.7785 0
      vertex 26.6301 -19.3479 0
      vertex 27.0657 -18.5936 0
    endloop
  endfacet
  facet normal 0 0 -1
    outer loop
      vertex 80.9017 -58.7785 0
      vertex 26.0473 -19.9953 0
      vertex 26.6301 -19.3479 0
    endloop
  endfacet
  facet normal 0 0 -1
    outer loop
      vertex 66.9131 -74.3145 0
      vertex 22.0255 -24.4618 0
      vertex 26.0473 -19.9953 0
    endloop
  endfacet
  facet normal 0 0 -1
    outer loop
      vertex 66.9131 -74.3145 0
      vertex 17.163 -27.9947 0
      vertex 22.0255 -24.4618 0
    endloop
  endfacet
  facet normal 0 0 -1
    outer loop
      vertex 50 -86.6025 0
      vertex 16.4583 -28.5067 0
      vertex 17.163 -27.9947 0
    endloop
  endfacet
  facet normal 0 0 -1
    outer loop
      vertex 50 -86.6025 0
      vertex 10.9676 -30.9513 0
      vertex 16.4583 -28.5067 0
    endloop
  endfacet
  facet normal 0 0 -1
    outer loop
      vertex 9.31977 -31.4867 0
      vertex 30.9017 -95.1057 0
      vertex 10.4528 -99.4522 0
    endloop
  endfacet
  facet normal 0 0 -1
    outer loop
      vertex 30.9017 -95.1057 0
      vertex 10.1718 -31.3056 0
      vertex 10.9676 -30.9513 0
    endloop
  endfacet
  facet normal 0 0 -1
    outer loop
      vertex 30.9017 -95.1057 0
      vertex 9.31977 -31.4867 0
      vertex 10.1718 -31.3056 0
    endloop
  endfacet
  facet normal 0 0 -1
    outer loop
      vertex 10.4528 -99.4522 0
      vertex 3.44073 -32.7363 0
      vertex 9.31977 -31.4867 0
    endloop
  endfacet
  facet normal 0 0 -1
    outer loop
      vertex 10.4528 -99.4522 0
      vertex -3.44073 -32.7363 0
      vertex 3.44073 -32.7363 0
    endloop
  endfacet
  facet normal 0 0 -1
    outer loop
      vertex -10.4528 -99.4522 0
      vertex -3.44073 -32.7363 0
      vertex 10.4528 -99.4522 0
    endloop
  endfacet
  facet normal -0 0 -1
    outer loop
      vertex -3.44073 -32.7363 0
      vertex -10.4528 -99.4522 0
      vertex -9.31977 -31.4867 0
    endloop
  endfacet
  facet normal 0 0 -1
    outer loop
      vertex -30.9017 -95.1057 0
      vertex -9.31977 -31.4867 0
      vertex -10.4528 -99.4522 0
    endloop
  endfacet
  facet normal -0 0 -1
    outer loop
      vertex -9.31977 -31.4867 0
      vertex -30.9017 -95.1057 0
      vertex -10.1718 -31.3056 0
    endloop
  endfacet
  facet normal -0 0 -1
    outer loop
      vertex -10.1718 -31.3056 0
      vertex -30.9017 -95.1057 0
      vertex -10.9676 -30.9513 0
    endloop
  endfacet
  facet normal 0 0 -1
    outer loop
      vertex -50 -86.6025 0
      vertex -10.9676 -30.9513 0
      vertex -30.9017 -95.1057 0
    endloop
  endfacet
  facet normal -0 0 -1
    outer loop
      vertex -10.9676 -30.9513 0
      vertex -50 -86.6025 0
      vertex -16.4583 -28.5067 0
    endloop
  endfacet
  facet normal -0 0 -1
    outer loop
      vertex -16.4583 -28.5067 0
      vertex -50 -86.6025 0
      vertex -17.163 -27.9947 0
    endloop
  endfacet
  facet normal 0 0 -1
    outer loop
      vertex -66.9131 -74.3145 0
      vertex -17.163 -27.9947 0
      vertex -50 -86.6025 0
    endloop
  endfacet
  facet normal -0 0 -1
    outer loop
      vertex -17.163 -27.9947 0
      vertex -66.9131 -74.3145 0
      vertex -22.0255 -24.4618 0
    endloop
  endfacet
  facet normal -0 0 -1
    outer loop
      vertex -22.0255 -24.4618 0
      vertex -66.9131 -74.3145 0
      vertex -26.0473 -19.9953 0
    endloop
  endfacet
  facet normal 0 0 -1
    outer loop
      vertex -80.9017 -58.7785 0
      vertex -26.0473 -19.9953 0
      vertex -66.9131 -74.3145 0
    endloop
  endfacet
  facet normal -0 0 -1
    outer loop
      vertex -26.0473 -19.9953 0
      vertex -80.9017 -58.7785 0
      vertex -26.6301 -19.3479 0
    endloop
  endfacet
  facet normal -0 0 -1
    outer loop
      vertex -26.6301 -19.3479 0
      vertex -80.9017 -58.7785 0
      vertex -27.0657 -18.5936 0
    endloop
  endfacet
  facet normal 0 0 -1
    outer loop
      vertex -91.3545 -40.6737 0
      vertex -27.0657 -18.5936 0
      vertex -80.9017 -58.7785 0
    endloop
  endfacet
  facet normal -0 0 -1
    outer loop
      vertex -27.0657 -18.5936 0
      vertex -91.3545 -40.6737 0
      vertex -30.0709 -13.3884 0
    endloop
  endfacet
  facet normal -0 0 -1
    outer loop
      vertex -30.0709 -13.3884 0
      vertex -91.3545 -40.6737 0
      vertex -30.34 -12.56 0
    endloop
  endfacet
  facet normal 0 0 -1
    outer loop
      vertex 30.0709 13.3884 0
      vertex 91.3545 40.6737 0
      vertex 30.34 12.56 0
    endloop
  endfacet
  facet normal 0 0 -1
    outer loop
      vertex 27.0657 18.5936 0
      vertex 91.3545 40.6737 0
      vertex 30.0709 13.3884 0
    endloop
  endfacet
  facet normal -0 0 -1
    outer loop
      vertex 91.3545 40.6737 0
      vertex 27.0657 18.5936 0
      vertex 80.9017 58.7785 0
    endloop
  endfacet
  facet normal 0 0 -1
    outer loop
      vertex 26.6301 19.3479 0
      vertex 80.9017 58.7785 0
      vertex 27.0657 18.5936 0
    endloop
  endfacet
  facet normal 0 0 -1
    outer loop
      vertex 26.0473 19.9953 0
      vertex 80.9017 58.7785 0
      vertex 26.6301 19.3479 0
    endloop
  endfacet
  facet normal -0 0 -1
    outer loop
      vertex 80.9017 58.7785 0
      vertex 26.0473 19.9953 0
      vertex 66.9131 74.3145 0
    endloop
  endfacet
  facet normal 0 0 -1
    outer loop
      vertex 22.0255 24.4618 0
      vertex 66.9131 74.3145 0
      vertex 26.0473 19.9953 0
    endloop
  endfacet
  facet normal 0 0 -1
    outer loop
      vertex 17.163 27.9947 0
      vertex 66.9131 74.3145 0
      vertex 22.0255 24.4618 0
    endloop
  endfacet
  facet normal -0 0 -1
    outer loop
      vertex 66.9131 74.3145 0
      vertex 17.163 27.9947 0
      vertex 50 86.6025 0
    endloop
  endfacet
  facet normal 0 0 -1
    outer loop
      vertex 16.4583 28.5067 0
      vertex 50 86.6025 0
      vertex 17.163 27.9947 0
    endloop
  endfacet
  facet normal 0 0 -1
    outer loop
      vertex 10.9676 30.9513 0
      vertex 50 86.6025 0
      vertex 16.4583 28.5067 0
    endloop
  endfacet
  facet normal -0 0 -1
    outer loop
      vertex 50 86.6025 0
      vertex 10.9676 30.9513 0
      vertex 30.9017 95.1057 0
    endloop
  endfacet
  facet normal 0 0 -1
    outer loop
      vertex 10.1718 31.3056 0
      vertex 30.9017 95.1057 0
      vertex 10.9676 30.9513 0
    endloop
  endfacet
  facet normal 0 0 -1
    outer loop
      vertex 9.31977 31.4867 0
      vertex 30.9017 95.1057 0
      vertex 10.1718 31.3056 0
    endloop
  endfacet
  facet normal -0 0 -1
    outer loop
      vertex 30.9017 95.1057 0
      vertex 9.31977 31.4867 0
      vertex 10.4528 99.4522 0
    endloop
  endfacet
  facet normal 0 0 -1
    outer loop
      vertex 3.44073 32.7363 0
      vertex 10.4528 99.4522 0
      vertex 9.31977 31.4867 0
    endloop
  endfacet
  facet normal 0 0 -1
    outer loop
      vertex -3.44073 32.7363 0
      vertex 10.4528 99.4522 0
      vertex 3.44073 32.7363 0
    endloop
  endfacet
  facet normal 0 0 -1
    outer loop
      vertex -10.4528 99.4522 0
      vertex -3.44073 32.7363 0
      vertex -9.31977 31.4867 0
    endloop
  endfacet
  facet normal 0 0 -1
    outer loop
      vertex -30.9017 95.1057 0
      vertex -9.31977 31.4867 0
      vertex -10.1718 31.3056 0
    endloop
  endfacet
  facet normal 0 0 -1
    outer loop
      vertex -3.44073 32.7363 0
      vertex -10.4528 99.4522 0
      vertex 10.4528 99.4522 0
    endloop
  endfacet
  facet normal 0 0 -1
    outer loop
      vertex -30.9017 95.1057 0
      vertex -10.1718 31.3056 0
      vertex -10.9676 30.9513 0
    endloop
  endfacet
  facet normal 0 0 -1
    outer loop
      vertex -50 86.6025 0
      vertex -10.9676 30.9513 0
      vertex -16.4583 28.5067 0
    endloop
  endfacet
  facet normal 0 0 -1
    outer loop
      vertex -50 86.6025 0
      vertex -16.4583 28.5067 0
      vertex -17.163 27.9947 0
    endloop
  endfacet
  facet normal 0 0 -1
    outer loop
      vertex -66.9131 74.3145 0
      vertex -17.163 27.9947 0
      vertex -22.0255 24.4618 0
    endloop
  endfacet
  facet normal 0 0 -1
    outer loop
      vertex -66.9131 74.3145 0
      vertex -22.0255 24.4618 0
      vertex -26.0473 19.9953 0
    endloop
  endfacet
  facet normal 0 0 -1
    outer loop
      vertex -80.9017 58.7785 0
      vertex -26.0473 19.9953 0
      vertex -26.6301 19.3479 0
    endloop
  endfacet
  facet normal 0 0 -1
    outer loop
      vertex -80.9017 58.7785 0
      vertex -26.6301 19.3479 0
      vertex -27.0657 18.5936 0
    endloop
  endfacet
  facet normal 0 0 -1
    outer loop
      vertex -91.3545 40.6737 0
      vertex -27.0657 18.5936 0
      vertex -30.0709 13.3884 0
    endloop
  endfacet
  facet normal 0 0 -1
    outer loop
      vertex -91.3545 40.6737 0
      vertex -30.0709 13.3884 0
      vertex -30.34 12.56 0
    endloop
  endfacet
  facet normal 0 0 -1
    outer loop
      vertex -9.31977 31.4867 0
      vertex -30.9017 95.1057 0
      vertex -10.4528 99.4522 0
    endloop
  endfacet
  facet normal 0 0 -1
    outer loop
      vertex -97.8148 20.7912 0
      vertex -30.34 12.56 0
      vertex -32.1974 6.84376 0
    endloop
  endfacet
  facet normal 0 0 -1
    outer loop
      vertex -97.8148 20.7912 0
      vertex -32.1974 6.84376 0
      vertex -32.8256 0.866299 0
    endloop
  endfacet
  facet normal 0 0 -1
    outer loop
      vertex -100 0 0
      vertex -32.8256 0.866299 0
      vertex -32.9167 0 0
    endloop
  endfacet
  facet normal 0 0 -1
    outer loop
      vertex -97.8148 -20.7912 0
      vertex -30.34 -12.56 0
      vertex -91.3545 -40.6737 0
    endloop
  endfacet
  facet normal 0 0 -1
    outer loop
      vertex -10.9676 30.9513 0
      vertex -50 86.6025 0
      vertex -30.9017 95.1057 0
    endloop
  endfacet
  facet normal -0 0 -1
    outer loop
      vertex -30.34 -12.56 0
      vertex -97.8148 -20.7912 0
      vertex -32.1974 -6.84376 0
    endloop
  endfacet
  facet normal 0 0 -1
    outer loop
      vertex -17.163 27.9947 0
      vertex -66.9131 74.3145 0
      vertex -50 86.6025 0
    endloop
  endfacet
  facet normal -0 0 -1
    outer loop
      vertex -32.1974 -6.84376 0
      vertex -97.8148 -20.7912 0
      vertex -32.8256 -0.866299 0
    endloop
  endfacet
  facet normal 0 0 -1
    outer loop
      vertex -26.0473 19.9953 0
      vertex -80.9017 58.7785 0
      vertex -66.9131 74.3145 0
    endloop
  endfacet
  facet normal 0 0 -1
    outer loop
      vertex -100 0 0
      vertex -32.8256 -0.866299 0
      vertex -97.8148 -20.7912 0
    endloop
  endfacet
  facet normal 0 0 -1
    outer loop
      vertex -27.0657 18.5936 0
      vertex -91.3545 40.6737 0
      vertex -80.9017 58.7785 0
    endloop
  endfacet
  facet normal 0 0 -1
    outer loop
      vertex -32.8256 -0.866299 0
      vertex -100 0 0
      vertex -32.9167 0 0
    endloop
  endfacet
  facet normal 0 0 -1
    outer loop
      vertex -30.34 12.56 0
      vertex -97.8148 20.7912 0
      vertex -91.3545 40.6737 0
    endloop
  endfacet
  facet normal -0 0 -1
    outer loop
      vertex -32.8256 0.866299 0
      vertex -100 0 0
      vertex -97.8148 20.7912 0
    endloop
  endfacet
  facet normal 0.743145 -0.669131 0
    outer loop
      vertex 66.9131 -74.3145 100
      vertex 80.9017 -58.7785 0
      vertex 80.9017 -58.7785 100
    endloop
  endfacet
  facet normal 0.743145 -0.669131 0
    outer loop
      vertex 80.9017 -58.7785 0
      vertex 66.9131 -74.3145 100
      vertex 66.9131 -74.3145 0
    endloop
  endfacet
  facet normal 0.951057 -0.309017 0
    outer loop
      vertex 91.3545 -40.6737 100
      vertex 97.8148 -20.7912 0
      vertex 97.8148 -20.7912 100
    endloop
  endfacet
  facet normal 0.951057 -0.309017 0
    outer loop
      vertex 97.8148 -20.7912 0
      vertex 91.3545 -40.6737 100
      vertex 91.3545 -40.6737 0
    endloop
  endfacet
  facet normal 0.866025 -0.5 0
    outer loop
      vertex 80.9017 -58.7785 100
      vertex 91.3545 -40.6737 0
      vertex 91.3545 -40.6737 100
    endloop
  endfacet
  facet normal 0.866025 -0.5 0
    outer loop
      vertex 91.3545 -40.6737 0
      vertex 80.9017 -58.7785 100
      vertex 80.9017 -58.7785 0
    endloop
  endfacet
  facet normal -0.587785 -0.809017 0
    outer loop
      vertex -66.9131 -74.3145 0
      vertex -50 -86.6025 100
      vertex -66.9131 -74.3145 100
    endloop
  endfacet
  facet normal -0.587785 -0.809017 -0
    outer loop
      vertex -50 -86.6025 100
      vertex -66.9131 -74.3145 0
      vertex -50 -86.6025 0
    endloop
  endfacet
  facet normal -0.866025 -0.5 0
    outer loop
      vertex -80.9017 -58.7785 0
      vertex -91.3545 -40.6737 100
      vertex -91.3545 -40.6737 0
    endloop
  endfacet
  facet normal -0.866025 -0.5 0
    outer loop
      vertex -91.3545 -40.6737 100
      vertex -80.9017 -58.7785 0
      vertex -80.9017 -58.7785 100
    endloop
  endfacet
  facet normal 0.587785 -0.809017 0
    outer loop
      vertex 50 -86.6025 0
      vertex 66.9131 -74.3145 100
      vertex 50 -86.6025 100
    endloop
  endfacet
  facet normal 0.587785 -0.809017 0
    outer loop
      vertex 66.9131 -74.3145 100
      vertex 50 -86.6025 0
      vertex 66.9131 -74.3145 0
    endloop
  endfacet
  facet normal -0.207912 -0.978148 0
    outer loop
      vertex -30.9017 -95.1057 0
      vertex -10.4528 -99.4522 100
      vertex -30.9017 -95.1057 100
    endloop
  endfacet
  facet normal -0.207912 -0.978148 -0
    outer loop
      vertex -10.4528 -99.4522 100
      vertex -30.9017 -95.1057 0
      vertex -10.4528 -99.4522 0
    endloop
  endfacet
  facet normal -0.406737 -0.913545 0
    outer loop
      vertex -50 -86.6025 0
      vertex -30.9017 -95.1057 100
      vertex -50 -86.6025 100
    endloop
  endfacet
  facet normal -0.406737 -0.913545 -0
    outer loop
      vertex -30.9017 -95.1057 100
      vertex -50 -86.6025 0
      vertex -30.9017 -95.1057 0
    endloop
  endfacet
  facet normal -0.743145 -0.669131 0
    outer loop
      vertex -66.9131 -74.3145 0
      vertex -80.9017 -58.7785 100
      vertex -80.9017 -58.7785 0
    endloop
  endfacet
  facet normal -0.743145 -0.669131 0
    outer loop
      vertex -80.9017 -58.7785 100
      vertex -66.9131 -74.3145 0
      vertex -66.9131 -74.3145 100
    endloop
  endfacet
  facet normal -0.951057 -0.309017 0
    outer loop
      vertex -91.3545 -40.6737 0
      vertex -97.8148 -20.7912 100
      vertex -97.8148 -20.7912 0
    endloop
  endfacet
  facet normal -0.951057 -0.309017 0
    outer loop
      vertex -97.8148 -20.7912 100
      vertex -91.3545 -40.6737 0
      vertex -91.3545 -40.6737 100
    endloop
  endfacet
  facet normal -0.994522 -0.104529 0
    outer loop
      vertex -97.8148 -20.7912 0
      vertex -100 0 100
      vertex -100 0 0
    endloop
  endfacet
  facet normal -0.994522 -0.104529 0
    outer loop
      vertex -100 0 100
      vertex -97.8148 -20.7912 0
      vertex -97.8148 -20.7912 100
    endloop
  endfacet
  facet normal 0.406737 -0.913545 0
    outer loop
      vertex 30.9017 -95.1057 0
      vertex 50 -86.6025 100
      vertex 30.9017 -95.1057 100
    endloop
  endfacet
  facet normal 0.406737 -0.913545 0
    outer loop
      vertex 50 -86.6025 100
      vertex 30.9017 -95.1057 0
      vertex 50 -86.6025 0
    endloop
  endfacet
  facet normal 0.207912 -0.978148 0
    outer loop
      vertex 10.4528 -99.4522 0
      vertex 30.9017 -95.1057 100
      vertex 10.4528 -99.4522 100
    endloop
  endfacet
  facet normal 0.207912 -0.978148 0
    outer loop
      vertex 30.9017 -95.1057 100
      vertex 10.4528 -99.4522 0
      vertex 30.9017 -95.1057 0
    endloop
  endfacet
  facet normal -0.749094 0.43249 0.501807
    outer loop
      vertex 27.0657 -18.5936 0
      vertex 83.361 -37.1147 100
      vertex 30.0709 -13.3884 0
    endloop
  endfacet
  facet normal -0.749094 0.432491 0.501807
    outer loop
      vertex 83.361 -37.1147 100
      vertex 27.0657 -18.5936 0
      vertex 82.969 -37.7937 100
    endloop
  endfacet
  facet normal -0.860241 -0.0904163 0.501807
    outer loop
      vertex 91.25 0 100
      vertex 32.8256 0.866299 0
      vertex 32.9167 0 0
    endloop
  endfacet
  facet normal -0.860241 -0.0904151 0.501807
    outer loop
      vertex 32.8256 0.866299 0
      vertex 91.25 0 100
      vertex 89.3379 18.1923 100
    endloop
  endfacet
  facet normal -0.860241 -0.0904159 0.501807
    outer loop
      vertex 32.1974 6.84376 0
      vertex 89.3379 18.1923 100
      vertex 89.256 18.9719 100
    endloop
  endfacet
  facet normal -0.860241 -0.0904152 0.501807
    outer loop
      vertex 89.3379 18.1923 100
      vertex 32.1974 6.84376 0
      vertex 32.8256 0.866299 0
    endloop
  endfacet
  facet normal -0.822645 0.267292 0.501807
    outer loop
      vertex 30.0709 -13.3884 0
      vertex 89.0137 -19.7175 100
      vertex 30.34 -12.56 0
    endloop
  endfacet
  facet normal -0.822644 0.267293 0.501807
    outer loop
      vertex 89.0137 -19.7175 100
      vertex 30.0709 -13.3884 0
      vertex 83.361 -37.1147 100
    endloop
  endfacet
  facet normal 0.822644 0.267293 0.501807
    outer loop
      vertex -89.256 -18.9719 100
      vertex -30.34 -12.56 0
      vertex -32.1974 -6.84376 0
    endloop
  endfacet
  facet normal 0.822645 0.267291 0.501807
    outer loop
      vertex -30.34 -12.56 0
      vertex -89.256 -18.9719 100
      vertex -89.0137 -19.7175 100
    endloop
  endfacet
  facet normal -0.179838 0.846078 0.501807
    outer loop
      vertex 9.31977 -31.4867 0
      vertex 9.53822 -90.7501 100
      vertex 10.3051 -90.5871 100
    endloop
  endfacet
  facet normal -0.179839 0.846078 0.501807
    outer loop
      vertex 9.53822 -90.7501 100
      vertex 9.31977 -31.4867 0
      vertex 3.44073 -32.7363 0
    endloop
  endfacet
  facet normal -0.860241 0.0904163 0.501807
    outer loop
      vertex 32.8256 -0.866299 0
      vertex 91.25 0 100
      vertex 32.9167 0 0
    endloop
  endfacet
  facet normal -0.860241 0.0904151 0.501807
    outer loop
      vertex 91.25 0 100
      vertex 32.8256 -0.866299 0
      vertex 89.3379 -18.1923 100
    endloop
  endfacet
  facet normal -0.822644 0.267293 0.501807
    outer loop
      vertex 30.34 -12.56 0
      vertex 89.256 -18.9719 100
      vertex 32.1974 -6.84376 0
    endloop
  endfacet
  facet normal -0.822645 0.267291 0.501807
    outer loop
      vertex 89.256 -18.9719 100
      vertex 30.34 -12.56 0
      vertex 89.0137 -19.7175 100
    endloop
  endfacet
  facet normal 0 0.864979 0.501807
    outer loop
      vertex 3.44073 -32.7363 0
      vertex -9.53822 -90.7501 100
      vertex 9.53822 -90.7501 100
    endloop
  endfacet
  facet normal 0 0.864979 0.501807
    outer loop
      vertex -9.53822 -90.7501 100
      vertex 3.44073 -32.7363 0
      vertex -3.44073 -32.7363 0
    endloop
  endfacet
  facet normal 0.179838 -0.846078 0.501807
    outer loop
      vertex -9.31977 31.4867 0
      vertex -9.53822 90.7501 100
      vertex -10.3051 90.5871 100
    endloop
  endfacet
  facet normal 0.179839 -0.846078 0.501807
    outer loop
      vertex -9.53822 90.7501 100
      vertex -9.31977 31.4867 0
      vertex -3.44073 32.7363 0
    endloop
  endfacet
  facet normal 0.860241 -0.0904151 0.501807
    outer loop
      vertex -91.25 0 100
      vertex -32.8256 0.866299 0
      vertex -89.3379 18.1923 100
    endloop
  endfacet
  facet normal 0.860241 -0.0904163 0.501807
    outer loop
      vertex -32.8256 0.866299 0
      vertex -91.25 0 100
      vertex -32.9167 0 0
    endloop
  endfacet
  facet normal -0.351819 -0.790198 0.501807
    outer loop
      vertex 16.4583 28.5067 0
      vertex 44.9088 79.3437 100
      vertex 10.9676 30.9513 0
    endloop
  endfacet
  facet normal -0.351815 -0.7902 0.501807
    outer loop
      vertex 44.9088 79.3437 100
      vertex 16.4583 28.5067 0
      vertex 45.625 79.0248 100
    endloop
  endfacet
  facet normal -0.642805 0.578784 0.501807
    outer loop
      vertex 26.0473 -19.9953 0
      vertex 73.8228 -53.6354 100
      vertex 26.6301 -19.3479 0
    endloop
  endfacet
  facet normal -0.642805 0.578784 0.501807
    outer loop
      vertex 73.8228 -53.6354 100
      vertex 26.0473 -19.9953 0
      vertex 61.5827 -67.2294 100
    endloop
  endfacet
  facet normal -0.749094 0.43249 0.501807
    outer loop
      vertex 26.6301 -19.3479 0
      vertex 82.969 -37.7937 100
      vertex 27.0657 -18.5936 0
    endloop
  endfacet
  facet normal -0.749094 0.43249 0.501807
    outer loop
      vertex 82.969 -37.7937 100
      vertex 26.6301 -19.3479 0
      vertex 73.8228 -53.6354 100
    endloop
  endfacet
  facet normal -0.860241 0.0904152 0.501807
    outer loop
      vertex 32.1974 -6.84376 0
      vertex 89.3379 -18.1923 100
      vertex 32.8256 -0.866299 0
    endloop
  endfacet
  facet normal -0.860241 0.0904159 0.501807
    outer loop
      vertex 89.3379 -18.1923 100
      vertex 32.1974 -6.84376 0
      vertex 89.256 -18.9719 100
    endloop
  endfacet
  facet normal -0.351815 0.7902 0.501807
    outer loop
      vertex 16.4583 -28.5067 0
      vertex 44.9088 -79.3437 100
      vertex 45.625 -79.0248 100
    endloop
  endfacet
  facet normal -0.351819 0.790198 0.501807
    outer loop
      vertex 44.9088 -79.3437 100
      vertex 16.4583 -28.5067 0
      vertex 10.9676 -30.9513 0
    endloop
  endfacet
  facet normal 0.749094 0.43249 0.501807
    outer loop
      vertex -82.969 -37.7937 100
      vertex -26.6301 -19.3479 0
      vertex -27.0657 -18.5936 0
    endloop
  endfacet
  facet normal 0.749094 0.43249 0.501807
    outer loop
      vertex -26.6301 -19.3479 0
      vertex -82.969 -37.7937 100
      vertex -73.8228 -53.6354 100
    endloop
  endfacet
  facet normal 0.179838 0.846078 0.501807
    outer loop
      vertex -10.1718 -31.3056 0
      vertex -10.3051 -90.5871 100
      vertex -9.31977 -31.4867 0
    endloop
  endfacet
  facet normal 0.179839 0.846078 0.501807
    outer loop
      vertex -10.3051 -90.5871 100
      vertex -10.1718 -31.3056 0
      vertex -28.1978 -86.7839 100
    endloop
  endfacet
  facet normal 0.351819 0.790198 0.501807
    outer loop
      vertex -16.4583 -28.5067 0
      vertex -44.9088 -79.3437 100
      vertex -10.9676 -30.9513 0
    endloop
  endfacet
  facet normal 0.351815 0.7902 0.501807
    outer loop
      vertex -44.9088 -79.3437 100
      vertex -16.4583 -28.5067 0
      vertex -45.625 -79.0248 100
    endloop
  endfacet
  facet normal 0.351819 -0.790198 0.501807
    outer loop
      vertex -10.9676 30.9513 0
      vertex -28.1978 86.7839 100
      vertex -44.9088 79.3437 100
    endloop
  endfacet
  facet normal 0.35182 -0.790198 0.501807
    outer loop
      vertex -28.1978 86.7839 100
      vertex -10.9676 30.9513 0
      vertex -10.1718 31.3056 0
    endloop
  endfacet
  facet normal 0.179839 -0.846078 0.501807
    outer loop
      vertex -10.1718 31.3056 0
      vertex -10.3051 90.5871 100
      vertex -28.1978 86.7839 100
    endloop
  endfacet
  facet normal 0.179838 -0.846078 0.501807
    outer loop
      vertex -10.3051 90.5871 100
      vertex -10.1718 31.3056 0
      vertex -9.31977 31.4867 0
    endloop
  endfacet
  facet normal 0.642805 -0.578784 0.501807
    outer loop
      vertex -73.8228 53.6354 100
      vertex -26.0473 19.9953 0
      vertex -61.5827 67.2294 100
    endloop
  endfacet
  facet normal 0.642805 -0.578784 0.501807
    outer loop
      vertex -26.0473 19.9953 0
      vertex -73.8228 53.6354 100
      vertex -26.6301 19.3479 0
    endloop
  endfacet
  facet normal 0.822644 -0.267293 0.501807
    outer loop
      vertex -89.0137 19.7175 100
      vertex -30.0709 13.3884 0
      vertex -83.361 37.1147 100
    endloop
  endfacet
  facet normal 0.822645 -0.267292 0.501807
    outer loop
      vertex -30.0709 13.3884 0
      vertex -89.0137 19.7175 100
      vertex -30.34 12.56 0
    endloop
  endfacet
  facet normal 0.860241 -0.0904159 0.501807
    outer loop
      vertex -89.3379 18.1923 100
      vertex -32.1974 6.84376 0
      vertex -89.256 18.9719 100
    endloop
  endfacet
  facet normal 0.860241 -0.0904152 0.501807
    outer loop
      vertex -32.1974 6.84376 0
      vertex -89.3379 18.1923 100
      vertex -32.8256 0.866299 0
    endloop
  endfacet
  facet normal 0.822645 -0.267291 0.501807
    outer loop
      vertex -89.256 18.9719 100
      vertex -30.34 12.56 0
      vertex -89.0137 19.7175 100
    endloop
  endfacet
  facet normal 0.822644 -0.267293 0.501807
    outer loop
      vertex -30.34 12.56 0
      vertex -89.256 18.9719 100
      vertex -32.1974 6.84376 0
    endloop
  endfacet
  facet normal 0.860241 0.0904163 0.501807
    outer loop
      vertex -91.25 0 100
      vertex -32.8256 -0.866299 0
      vertex -32.9167 0 0
    endloop
  endfacet
  facet normal 0.860241 0.0904151 0.501807
    outer loop
      vertex -32.8256 -0.866299 0
      vertex -91.25 0 100
      vertex -89.3379 -18.1923 100
    endloop
  endfacet
  facet normal -0.822645 -0.267291 0.501807
    outer loop
      vertex 30.34 12.56 0
      vertex 89.256 18.9719 100
      vertex 89.0137 19.7175 100
    endloop
  endfacet
  facet normal -0.822644 -0.267293 0.501807
    outer loop
      vertex 89.256 18.9719 100
      vertex 30.34 12.56 0
      vertex 32.1974 6.84376 0
    endloop
  endfacet
  facet normal 0 -0.864979 0.501807
    outer loop
      vertex -3.44073 32.7363 0
      vertex 9.53822 90.7501 100
      vertex -9.53822 90.7501 100
    endloop
  endfacet
  facet normal 0 -0.864979 0.501807
    outer loop
      vertex 9.53822 90.7501 100
      vertex -3.44073 32.7363 0
      vertex 3.44073 32.7363 0
    endloop
  endfacet
  facet normal -0.642805 0.578784 0.501807
    outer loop
      vertex 22.0255 -24.4618 0
      vertex 61.5827 -67.2294 100
      vertex 26.0473 -19.9953 0
    endloop
  endfacet
  facet normal -0.642807 0.578782 0.501807
    outer loop
      vertex 61.5827 -67.2294 100
      vertex 22.0255 -24.4618 0
      vertex 61.0582 -67.812 100
    endloop
  endfacet
  facet normal -0.179839 0.846078 0.501807
    outer loop
      vertex 10.1718 -31.3056 0
      vertex 10.3051 -90.5871 100
      vertex 28.1978 -86.7839 100
    endloop
  endfacet
  facet normal -0.179838 0.846078 0.501807
    outer loop
      vertex 10.3051 -90.5871 100
      vertex 10.1718 -31.3056 0
      vertex 9.31977 -31.4867 0
    endloop
  endfacet
  facet normal -0.351819 0.790198 0.501807
    outer loop
      vertex 10.9676 -30.9513 0
      vertex 28.1978 -86.7839 100
      vertex 44.9088 -79.3437 100
    endloop
  endfacet
  facet normal -0.35182 0.790198 0.501807
    outer loop
      vertex 28.1978 -86.7839 100
      vertex 10.9676 -30.9513 0
      vertex 10.1718 -31.3056 0
    endloop
  endfacet
  facet normal -0.508421 0.699784 0.501807
    outer loop
      vertex 22.0255 -24.4618 0
      vertex 60.4239 -68.2728 100
      vertex 61.0582 -67.812 100
    endloop
  endfacet
  facet normal -0.508422 0.699783 0.501807
    outer loop
      vertex 60.4239 -68.2728 100
      vertex 22.0255 -24.4618 0
      vertex 17.163 -27.9947 0
    endloop
  endfacet
  facet normal -0.508422 0.699783 0.501807
    outer loop
      vertex 17.163 -27.9947 0
      vertex 45.625 -79.0248 100
      vertex 60.4239 -68.2728 100
    endloop
  endfacet
  facet normal -0.508422 0.699783 0.501807
    outer loop
      vertex 45.625 -79.0248 100
      vertex 17.163 -27.9947 0
      vertex 16.4583 -28.5067 0
    endloop
  endfacet
  facet normal 0.822645 0.267292 0.501807
    outer loop
      vertex -89.0137 -19.7175 100
      vertex -30.0709 -13.3884 0
      vertex -30.34 -12.56 0
    endloop
  endfacet
  facet normal 0.822644 0.267293 0.501807
    outer loop
      vertex -30.0709 -13.3884 0
      vertex -89.0137 -19.7175 100
      vertex -83.361 -37.1147 100
    endloop
  endfacet
  facet normal 0.860241 0.0904152 0.501807
    outer loop
      vertex -89.3379 -18.1923 100
      vertex -32.1974 -6.84376 0
      vertex -32.8256 -0.866299 0
    endloop
  endfacet
  facet normal 0.860241 0.0904159 0.501807
    outer loop
      vertex -32.1974 -6.84376 0
      vertex -89.3379 -18.1923 100
      vertex -89.256 -18.9719 100
    endloop
  endfacet
  facet normal 0.35182 0.790198 0.501807
    outer loop
      vertex -10.9676 -30.9513 0
      vertex -28.1978 -86.7839 100
      vertex -10.1718 -31.3056 0
    endloop
  endfacet
  facet normal 0.351819 0.790198 0.501807
    outer loop
      vertex -28.1978 -86.7839 100
      vertex -10.9676 -30.9513 0
      vertex -44.9088 -79.3437 100
    endloop
  endfacet
  facet normal 0.749094 0.43249 0.501807
    outer loop
      vertex -83.361 -37.1147 100
      vertex -27.0657 -18.5936 0
      vertex -30.0709 -13.3884 0
    endloop
  endfacet
  facet normal 0.749094 0.432491 0.501807
    outer loop
      vertex -27.0657 -18.5936 0
      vertex -83.361 -37.1147 100
      vertex -82.969 -37.7937 100
    endloop
  endfacet
  facet normal 0.351815 -0.7902 0.501807
    outer loop
      vertex -16.4583 28.5067 0
      vertex -44.9088 79.3437 100
      vertex -45.625 79.0248 100
    endloop
  endfacet
  facet normal 0.351819 -0.790198 0.501807
    outer loop
      vertex -44.9088 79.3437 100
      vertex -16.4583 28.5067 0
      vertex -10.9676 30.9513 0
    endloop
  endfacet
  facet normal 0.642807 -0.578782 0.501807
    outer loop
      vertex -61.5827 67.2294 100
      vertex -22.0255 24.4618 0
      vertex -61.0582 67.812 100
    endloop
  endfacet
  facet normal 0.642805 -0.578784 0.501807
    outer loop
      vertex -22.0255 24.4618 0
      vertex -61.5827 67.2294 100
      vertex -26.0473 19.9953 0
    endloop
  endfacet
  facet normal 0.749094 -0.432491 0.501807
    outer loop
      vertex -83.361 37.1147 100
      vertex -27.0657 18.5936 0
      vertex -82.969 37.7937 100
    endloop
  endfacet
  facet normal 0.749094 -0.43249 0.501807
    outer loop
      vertex -27.0657 18.5936 0
      vertex -83.361 37.1147 100
      vertex -30.0709 13.3884 0
    endloop
  endfacet
  facet normal 0.749094 -0.43249 0.501807
    outer loop
      vertex -82.969 37.7937 100
      vertex -26.6301 19.3479 0
      vertex -73.8228 53.6354 100
    endloop
  endfacet
  facet normal 0.749094 -0.43249 0.501807
    outer loop
      vertex -26.6301 19.3479 0
      vertex -82.969 37.7937 100
      vertex -27.0657 18.5936 0
    endloop
  endfacet
  facet normal -0.749094 -0.43249 0.501807
    outer loop
      vertex 26.6301 19.3479 0
      vertex 82.969 37.7937 100
      vertex 73.8228 53.6354 100
    endloop
  endfacet
  facet normal -0.749094 -0.43249 0.501807
    outer loop
      vertex 82.969 37.7937 100
      vertex 26.6301 19.3479 0
      vertex 27.0657 18.5936 0
    endloop
  endfacet
  facet normal -0.822644 -0.267293 0.501807
    outer loop
      vertex 30.0709 13.3884 0
      vertex 89.0137 19.7175 100
      vertex 83.361 37.1147 100
    endloop
  endfacet
  facet normal -0.822645 -0.267292 0.501807
    outer loop
      vertex 89.0137 19.7175 100
      vertex 30.0709 13.3884 0
      vertex 30.34 12.56 0
    endloop
  endfacet
  facet normal -0.179839 -0.846078 0.501807
    outer loop
      vertex 9.31977 31.4867 0
      vertex 9.53822 90.7501 100
      vertex 3.44073 32.7363 0
    endloop
  endfacet
  facet normal -0.179838 -0.846078 0.501807
    outer loop
      vertex 9.53822 90.7501 100
      vertex 9.31977 31.4867 0
      vertex 10.3051 90.5871 100
    endloop
  endfacet
  facet normal 0.642805 0.578784 0.501807
    outer loop
      vertex -73.8228 -53.6354 100
      vertex -26.0473 -19.9953 0
      vertex -26.6301 -19.3479 0
    endloop
  endfacet
  facet normal 0.642805 0.578784 0.501807
    outer loop
      vertex -26.0473 -19.9953 0
      vertex -73.8228 -53.6354 100
      vertex -61.5827 -67.2294 100
    endloop
  endfacet
  facet normal 0.508422 0.699783 0.501807
    outer loop
      vertex -22.0255 -24.4618 0
      vertex -60.4239 -68.2728 100
      vertex -17.163 -27.9947 0
    endloop
  endfacet
  facet normal 0.508421 0.699784 0.501807
    outer loop
      vertex -60.4239 -68.2728 100
      vertex -22.0255 -24.4618 0
      vertex -61.0582 -67.812 100
    endloop
  endfacet
  facet normal 0.179839 0.846078 0.501807
    outer loop
      vertex -9.31977 -31.4867 0
      vertex -9.53822 -90.7501 100
      vertex -3.44073 -32.7363 0
    endloop
  endfacet
  facet normal 0.179838 0.846078 0.501807
    outer loop
      vertex -9.53822 -90.7501 100
      vertex -9.31977 -31.4867 0
      vertex -10.3051 -90.5871 100
    endloop
  endfacet
  facet normal 0.508421 -0.699784 0.501807
    outer loop
      vertex -22.0255 24.4618 0
      vertex -60.4239 68.2728 100
      vertex -61.0582 67.812 100
    endloop
  endfacet
  facet normal 0.508422 -0.699783 0.501807
    outer loop
      vertex -60.4239 68.2728 100
      vertex -22.0255 24.4618 0
      vertex -17.163 27.9947 0
    endloop
  endfacet
  facet normal 0.508422 -0.699783 0.501807
    outer loop
      vertex -17.163 27.9947 0
      vertex -45.625 79.0248 100
      vertex -60.4239 68.2728 100
    endloop
  endfacet
  facet normal 0.508421 -0.699784 0.501807
    outer loop
      vertex -45.625 79.0248 100
      vertex -17.163 27.9947 0
      vertex -16.4583 28.5067 0
    endloop
  endfacet
  facet normal -0.749094 -0.432491 0.501807
    outer loop
      vertex 27.0657 18.5936 0
      vertex 83.361 37.1147 100
      vertex 82.969 37.7937 100
    endloop
  endfacet
  facet normal -0.749094 -0.43249 0.501807
    outer loop
      vertex 83.361 37.1147 100
      vertex 27.0657 18.5936 0
      vertex 30.0709 13.3884 0
    endloop
  endfacet
  facet normal -0.508422 -0.699783 0.501807
    outer loop
      vertex 22.0255 24.4618 0
      vertex 60.4239 68.2728 100
      vertex 17.163 27.9947 0
    endloop
  endfacet
  facet normal -0.508421 -0.699784 0.501807
    outer loop
      vertex 60.4239 68.2728 100
      vertex 22.0255 24.4618 0
      vertex 61.0582 67.812 100
    endloop
  endfacet
  facet normal -0.508422 -0.699783 0.501807
    outer loop
      vertex 17.163 27.9947 0
      vertex 45.625 79.0248 100
      vertex 16.4583 28.5067 0
    endloop
  endfacet
  facet normal -0.508422 -0.699783 0.501807
    outer loop
      vertex 45.625 79.0248 100
      vertex 17.163 27.9947 0
      vertex 60.4239 68.2728 100
    endloop
  endfacet
  facet normal -0.179838 -0.846078 0.501807
    outer loop
      vertex 10.1718 31.3056 0
      vertex 10.3051 90.5871 100
      vertex 9.31977 31.4867 0
    endloop
  endfacet
  facet normal -0.179839 -0.846078 0.501807
    outer loop
      vertex 10.3051 90.5871 100
      vertex 10.1718 31.3056 0
      vertex 28.1978 86.7839 100
    endloop
  endfacet
  facet normal -0.35182 -0.790198 0.501807
    outer loop
      vertex 10.9676 30.9513 0
      vertex 28.1978 86.7839 100
      vertex 10.1718 31.3056 0
    endloop
  endfacet
  facet normal -0.351819 -0.790198 0.501807
    outer loop
      vertex 28.1978 86.7839 100
      vertex 10.9676 30.9513 0
      vertex 44.9088 79.3437 100
    endloop
  endfacet
  facet normal 0.508422 0.699783 0.501807
    outer loop
      vertex -17.163 -27.9947 0
      vertex -45.625 -79.0248 100
      vertex -16.4583 -28.5067 0
    endloop
  endfacet
  facet normal 0.508422 0.699783 0.501807
    outer loop
      vertex -45.625 -79.0248 100
      vertex -17.163 -27.9947 0
      vertex -60.4239 -68.2728 100
    endloop
  endfacet
  facet normal -0.642807 -0.578782 0.501807
    outer loop
      vertex 22.0255 24.4618 0
      vertex 61.5827 67.2294 100
      vertex 61.0582 67.812 100
    endloop
  endfacet
  facet normal -0.642805 -0.578784 0.501807
    outer loop
      vertex 61.5827 67.2294 100
      vertex 22.0255 24.4618 0
      vertex 26.0473 19.9953 0
    endloop
  endfacet
  facet normal -0.642805 -0.578784 0.501807
    outer loop
      vertex 26.0473 19.9953 0
      vertex 73.8228 53.6354 100
      vertex 61.5827 67.2294 100
    endloop
  endfacet
  facet normal -0.642805 -0.578784 0.501807
    outer loop
      vertex 73.8228 53.6354 100
      vertex 26.0473 19.9953 0
      vertex 26.6301 19.3479 0
    endloop
  endfacet
  facet normal 0.642805 0.578784 0.501807
    outer loop
      vertex -61.5827 -67.2294 100
      vertex -22.0255 -24.4618 0
      vertex -26.0473 -19.9953 0
    endloop
  endfacet
  facet normal 0.642807 0.578782 0.501807
    outer loop
      vertex -22.0255 -24.4618 0
      vertex -61.5827 -67.2294 100
      vertex -61.0582 -67.812 100
    endloop
  endfacet
endsolid OpenSCAD_Model
